<svg width="20" height="20" viewBox="0 0 20 20" fill="none" xmlns="http://www.w3.org/2000/svg">
    <path d="M13.3062 11C13.3062 8.23338 14.6316 5.76301 16.7129 4.11334C17.1695 3.75139 17.0618 3.06642 16.5212 2.82951C15.0206 2.17275 13.3114 1.87162 11.5078 2.05113C7.10184 2.48994 3.53176 5.84182 3.05716 10.0003C2.43879 15.4188 6.91942 20 12.5332 20C13.9622 20 15.3149 19.6998 16.53 19.1667C17.0664 18.9312 17.1659 18.2462 16.7129 17.8867C14.6316 16.237 13.3062 13.7667 13.3062 11Z"
          fill="#999999"/>
    <path d="M3.98083 17.1437C5.52194 18.3057 7.45854 18.9978 9.56188 18.9978C11.376 18.9978 13.0617 18.4774 14.4808 17.5902C11.9677 16.0198 10.2997 13.288 10.2997 10.1732C10.2997 8.86042 10.5958 7.61591 11.1266 6.4978M11.8203 4.46334C12.3947 3.67435 13.0879 2.99108 13.87 2.44437C12.5672 1.53399 11.0196 1 9.35421 1C4.74043 1 1 5.05411 1 10.0548C1 11.6416 1.37662 13.133 2.03818 14.43"
          stroke="#202020" stroke-width="0.5"/>
</svg>
