<svg width="20" height="20" viewBox="0 0 20 20" fill="none" xmlns="http://www.w3.org/2000/svg">
    <path d="M4.0033 6.6268L5.25095 18.1691C5.30161 18.6415 5.70405 19 6.18341 19H14.8161C15.2955 19 15.6974 18.6415 15.7486 18.1691L16.9967 6.6268C17.0328 6.29201 16.7683 6 16.4287 6H4.57131C4.23173 6.00046 3.96719 6.29201 4.0033 6.6268Z"
          fill="#EE7371"/>
    <path d="M15.3047 12.5078L16.15 5M11.2639 12.7638L8.00012 9.5M8 12.7638L11.2638 9.5M3 8L3.95868 16.3994C4.06271 17.3099 4.8811 18 5.85648 18H12.9242C13.8996 18 14.718 17.3099 14.822 16.3994L15 14.8409M2 5H17M8 1H11M3 5L4.30604 2.8905C4.65007 2.334 5.22996 2 5.85118 2H13.1493C13.77 2 14.3499 2.334 14.6944 2.8905L16 5"
          stroke="#202020" stroke-width="0.5"/>
</svg>
