<svg width="20" height="12" viewBox="0 0 20 12" fill="none" xmlns="http://www.w3.org/2000/svg">
    <path d="M0 0H20V12H0V0Z" fill="#ECEFF1"/>
    <path d="M0 0H20V1.33333H0V0ZM0 2.66665H20V3.99998H0V2.66665ZM0 5.3333H20V6.66663H0V5.3333ZM0 7.99996H20V9.33335H0V7.99996ZM0 10.6667H20V12H0V10.6667Z"
          fill="#F44336"/>
    <path d="M0 0H10V6.67H0V0Z" fill="#3F51B5"/>
    <path d="M1.07147 0.887207L1.29194 1.32522L1.78575 1.39527L1.42861 1.73664L1.51337 2.21721L1.07147 1.99022L0.629555 2.21721L0.714326 1.73664L0.357178 1.39527L0.850983 1.32522L1.07147 0.887207ZM2.97623 0.887207L3.1967 1.32522L3.69051 1.39527L3.33337 1.73664L3.41812 2.21721L2.97623 1.99022L2.53433 2.21721L2.61908 1.73664L2.26194 1.39527L2.75575 1.32522L2.97623 0.887207ZM4.88098 0.887207L5.10147 1.32522L5.59527 1.39527L5.23812 1.73664L5.3229 2.21721L4.88098 1.99022L4.43908 2.21721L4.52384 1.73664L4.1667 1.39527L4.66051 1.32522L4.88098 0.887207ZM6.78575 0.887207L7.00622 1.32522L7.50004 1.39527L7.14289 1.73664L7.22765 2.21721L6.78575 1.99022L6.34384 2.21721L6.42861 1.73664L6.07147 1.39527L6.56527 1.32522L6.78575 0.887207ZM8.57146 0.887207L8.79194 1.32522L9.28575 1.39527L8.92861 1.73664L9.01336 2.21721L8.57146 1.99022L8.12955 2.21721L8.21432 1.73664L7.85718 1.39527L8.35098 1.32522L8.57146 0.887207ZM1.07147 4.43388L1.29194 4.87189L1.78575 4.94194L1.42861 5.2833L1.51337 5.76388L1.07147 5.53689L0.629555 5.76388L0.714326 5.2833L0.357178 4.94194L0.850983 4.87189L1.07147 4.43388ZM2.97623 4.43388L3.1967 4.87189L3.69051 4.94194L3.33337 5.2833L3.41812 5.76388L2.97623 5.53689L2.53433 5.76388L2.61908 5.2833L2.26194 4.94194L2.75575 4.87189L2.97623 4.43388ZM4.88098 4.43388L5.10147 4.87189L5.59527 4.94194L5.23812 5.2833L5.3229 5.76388L4.88098 5.53689L4.43908 5.76388L4.52384 5.2833L4.1667 4.94194L4.66051 4.87189L4.88098 4.43388ZM6.78575 4.43388L7.00622 4.87189L7.50004 4.94194L7.14289 5.2833L7.22765 5.76388L6.78575 5.53689L6.34384 5.76388L6.42861 5.2833L6.07147 4.94194L6.56527 4.87189L6.78575 4.43388ZM8.57146 4.43388L8.79194 4.87189L9.28575 4.94194L8.92861 5.2833L9.01336 5.76388L8.57146 5.53689L8.12955 5.76388L8.21432 5.2833L7.85718 4.94194L8.35098 4.87189L8.57146 4.43388ZM1.54765 2.66054L1.76813 3.09856L2.26194 3.1686L1.9048 3.50997L1.98955 3.99054L1.54765 3.76356L1.10575 3.99054L1.19051 3.50997L0.833369 3.1686L1.32718 3.09856L1.54765 2.66054ZM3.45241 2.66054L3.6729 3.09856L4.1667 3.1686L3.80955 3.50997L3.89432 3.99054L3.45241 3.76356L3.01051 3.99054L3.09527 3.50997L2.73813 3.1686L3.23194 3.09856L3.45241 2.66054ZM5.35718 2.66054L5.57765 3.09856L6.07147 3.1686L5.71432 3.50997L5.79908 3.99054L5.35718 3.76356L4.91527 3.99054L5.00004 3.50997L4.6429 3.1686L5.1367 3.09856L5.35718 2.66054ZM7.26194 2.66054L7.48241 3.09856L7.97622 3.1686L7.61908 3.50997L7.70384 3.99054L7.26194 3.76356L6.82004 3.99054L6.90479 3.50997L6.54765 3.1686L7.04147 3.09856L7.26194 2.66054ZM9.04765 2.66054L9.26812 3.09856L9.76194 3.1686L9.40479 3.50997L9.48955 3.99054L9.04765 3.76356L8.60575 3.99054L8.69051 3.50997L8.33337 3.1686L8.82718 3.09856L9.04765 2.66054Z"
          fill="white"/>
</svg>
