<svg width="250" height="275" viewBox="0 0 250 275" fill="none" xmlns="http://www.w3.org/2000/svg">
<path fill-rule="evenodd" clip-rule="evenodd" d="M213.67 183.218C216.398 179.869 217.596 179.425 221.013 179.609C225.386 179.848 226.023 182.626 232.364 184.575C235.42 185.513 249.797 192.132 247.278 200.269C246.838 201.691 245.115 207.018 237.709 206.487C235.033 206.296 230.831 205.596 229.971 204.762C229.115 203.932 227.493 203.578 226.532 202.878C224.27 201.233 221.761 200.54 219.074 199.497C216.167 198.371 214.195 196.679 211.603 195.004C210.712 194.427 209.273 193.535 209.273 193.535C211.237 189.584 212.218 186.646 213.67 183.218Z" fill="white"/>
<path fill-rule="evenodd" clip-rule="evenodd" d="M212.65 182.435C212.572 182.525 212.512 182.63 212.468 182.738C211.023 186.141 210.051 189.061 208.099 192.987C207.813 193.564 208.016 194.257 208.571 194.6C208.571 194.6 209.998 195.484 210.88 196.054C213.554 197.783 215.594 199.508 218.59 200.67C221.166 201.669 223.581 202.312 225.751 203.889C226.302 204.289 227.031 204.603 227.749 204.921C228.233 205.134 228.724 205.336 229.048 205.653C229.402 205.996 230.139 206.379 231.136 206.675C232.915 207.201 235.654 207.606 237.616 207.746C240.984 207.988 243.31 207.126 244.933 205.946C247.371 204.17 248.223 201.604 248.524 200.63C249.674 196.924 247.869 193.452 244.914 190.605C240.85 186.682 234.672 183.958 232.755 183.37C229.748 182.446 228.092 181.32 226.67 180.4C224.977 179.306 223.551 178.483 221.084 178.35C219.092 178.242 217.756 178.364 216.51 178.956C215.311 179.523 214.18 180.555 212.65 182.435ZM214.805 183.86C215.944 182.478 216.748 181.655 217.656 181.222C218.545 180.8 219.513 180.793 220.938 180.872C222.844 180.973 223.923 181.659 225.226 182.504C226.8 183.518 228.639 184.755 231.97 185.78C233.719 186.318 239.361 188.812 243.079 192.395C245.312 194.549 246.898 197.101 246.031 199.905C245.804 200.637 245.205 202.59 243.366 203.925C242.138 204.82 240.359 205.412 237.806 205.228C236.265 205.119 234.199 204.834 232.614 204.448C232.122 204.333 231.683 204.206 231.33 204.069C231.136 203.993 230.976 203.946 230.891 203.867C230.455 203.445 229.871 203.102 229.234 202.806C228.568 202.492 227.831 202.243 227.314 201.868C224.958 200.157 222.353 199.41 219.558 198.324C216.74 197.231 214.838 195.578 212.326 193.954C211.915 193.687 211.389 193.355 210.939 193.073C212.572 189.649 213.506 186.946 214.805 183.86Z" fill="black"/>
<path fill-rule="evenodd" clip-rule="evenodd" d="M94.5349 55.2553C93.5881 48.7178 95.532 30.7244 101.125 19.8193C108.467 5.50429 121.611 -1.38076 138.086 2.20918C174.855 10.2212 166.059 60.9913 165.005 61.9964C165.005 61.9964 147.839 53.3268 124.96 52.2734C107.405 51.4651 97.0806 55.2553 94.5349 55.2553Z" fill="#8A7668"/>
<path fill-rule="evenodd" clip-rule="evenodd" d="M93.2448 55.4306C93.3353 56.0542 93.8854 56.5183 94.5348 56.5183C97.0753 56.5183 107.379 52.7284 124.898 53.5349C147.467 54.5739 164.403 63.1164 164.403 63.1164C164.904 63.3694 165.516 63.2806 165.919 62.8967C166.039 62.7823 166.323 62.373 166.527 61.6174C166.968 59.9841 167.684 55.7428 167.906 50.2023C168.556 33.9696 164.855 6.74738 138.371 0.976702C121.253 -2.75325 107.587 4.38297 99.9586 19.2566C94.2493 30.3884 92.2783 48.7578 93.2448 55.4306ZM164.126 60.1818C159.458 58.0816 144.227 51.8959 125.021 51.0117C109.413 50.2932 99.5078 53.1965 95.6926 53.8597C95.131 46.6633 97.1311 30.4425 102.291 20.3814C109.347 6.62542 121.968 -0.00810686 137.8 3.44145C162.794 8.88735 165.916 34.7849 165.303 50.1045C165.133 54.3354 164.48 58.2934 164.126 60.1818Z" fill="black"/>
<path fill-rule="evenodd" clip-rule="evenodd" d="M107.711 52.6809C106.519 51.3464 105.217 43.2824 104.437 42.6498C103.24 41.6794 101.573 36.7507 103.048 34.9228C104.24 33.4454 103.666 31.0864 103.853 29.2146C103.853 29.2146 126.926 31.7649 135.66 32.3863C142.055 32.841 146.024 32.9907 152.052 32.3372C152.525 32.286 153.367 33.4379 154.034 34.073C154.701 34.7081 155.756 34.7301 156.036 36.0415C156.328 37.4136 157.11 40.7881 155.064 43.4831C154.085 44.7735 153.276 46.2477 153.015 46.9846C151.694 50.7282 149.554 54.0706 148.379 55.7202C143.95 54.5639 137.695 52.8574 127.319 52.2089C116.748 51.5481 107.711 52.6809 107.711 52.6809Z" fill="white"/>
<path fill-rule="evenodd" clip-rule="evenodd" d="M103.456 43.4875C103.532 43.7127 104.001 45.1237 104.318 46.372C104.789 48.2247 105.313 50.3953 105.833 51.8124C106.122 52.5984 106.443 53.1899 106.727 53.5078C107.013 53.8279 107.445 53.9874 107.878 53.9333C107.878 53.9333 116.8 52.8168 127.235 53.4692C137.486 54.1097 143.665 55.7975 148.041 56.9393C148.573 57.0783 149.138 56.8773 149.451 56.4374C150.667 54.7301 152.879 51.2686 154.248 47.3932C154.483 46.7267 155.227 45.3991 156.113 44.2316C158.438 41.1686 157.644 37.3455 157.311 35.7858C157.082 34.7097 156.533 34.163 155.906 33.7549C155.591 33.5495 155.222 33.434 154.947 33.1721C154.456 32.7036 153.867 31.9751 153.391 31.5947C152.85 31.1624 152.304 31.0389 151.908 31.0819C145.967 31.7257 142.057 31.5745 135.755 31.1263C127.035 30.5059 104 27.9593 104 27.9593C103.653 27.921 103.305 28.0192 103.033 28.2325C102.762 28.4454 102.59 28.7554 102.556 29.0924C102.46 30.0556 102.555 31.1436 102.525 32.1815C102.504 32.9072 102.451 33.6127 102.022 34.1446C101.254 35.0959 101.025 36.6743 101.265 38.3285C101.575 40.4642 102.623 42.6673 103.456 43.4875ZM151.806 33.6336C152.077 33.9187 152.752 34.622 153.121 34.9735C153.403 35.2424 153.727 35.4427 154.063 35.6281C154.33 35.775 154.666 35.8573 154.76 36.2968C155.012 37.4819 155.781 40.4068 154.015 42.734C152.942 44.1476 152.068 45.7682 151.783 46.5751C150.681 49.6956 148.988 52.5263 147.817 54.2649C143.392 53.1098 137.22 51.562 127.403 50.9482C118.643 50.4007 110.923 51.0705 108.406 51.3318C108.257 50.9677 108.112 50.4787 107.948 49.933C107.445 48.2665 106.955 46.115 106.522 44.5214C106.281 43.6322 106.048 42.9011 105.846 42.4688C105.659 42.07 105.44 41.8171 105.273 41.681C105.085 41.5284 104.91 41.2072 104.719 40.82C104.332 40.0347 103.992 38.9896 103.845 37.977C103.716 37.0864 103.661 36.2131 104.074 35.701C104.703 34.9208 104.993 33.9652 105.09 32.9281C105.159 32.1833 105.12 31.3897 105.11 30.6232C110.249 31.1847 128.115 33.1158 135.564 33.6455C141.914 34.0973 145.906 34.2489 151.806 33.6336Z" fill="black"/>
<path fill-rule="evenodd" clip-rule="evenodd" d="M134.476 246.204C134.478 252.328 143.431 264.035 147.325 265.944C150.453 267.474 156.572 267.885 159.637 266.525C187.533 254.15 210.117 233.249 228.743 209.168C230.165 207.327 231.199 205.747 231.155 205.689C228.259 201.846 222.565 200.803 216.528 197.501C214.213 196.238 209.232 193.192 208.912 193.835C201.114 209.503 185.743 232.04 150.146 243.072C147.859 243.783 134.476 246.204 134.476 246.204Z" fill="#C0D6D1"/>
<path fill-rule="evenodd" clip-rule="evenodd" d="M134.237 244.963C133.62 245.075 133.173 245.598 133.174 246.208C133.174 249.448 135.474 254.197 138.36 258.362C141.239 262.512 144.681 266.063 146.738 267.07C150.152 268.744 156.833 269.159 160.179 267.672C188.272 255.212 211.028 234.176 229.785 209.926C231.147 208.161 232.163 206.61 232.32 206.274C232.662 205.549 232.297 205.065 232.204 204.946C230.638 202.86 228.33 201.5 225.572 200.247C223.06 199.107 220.153 198.035 217.165 196.4C215.523 195.502 212.546 193.723 210.798 192.954C210.256 192.716 209.8 192.568 209.486 192.518C209.154 192.46 208.884 192.485 208.685 192.536C208.214 192.658 207.916 192.933 207.739 193.286C200.044 208.749 184.876 230.983 149.749 241.87C147.486 242.57 134.237 244.963 134.237 244.963ZM209.656 195.238C209.842 195.314 210.046 195.401 210.229 195.491C211.955 196.325 214.444 197.815 215.888 198.602C218.936 200.269 221.899 201.37 224.467 202.535C226.499 203.459 228.274 204.405 229.569 205.801C229.16 206.415 228.457 207.429 227.701 208.41C209.206 232.318 186.795 253.09 159.095 265.377C156.311 266.611 150.754 266.207 147.913 264.814C146.076 263.916 143.094 260.661 140.522 256.951C138.249 253.674 136.281 250.029 135.861 247.236C139.173 246.63 148.644 244.865 150.542 244.277C185.969 233.296 201.623 211.07 209.656 195.238Z" fill="black"/>
<path fill-rule="evenodd" clip-rule="evenodd" d="M34.8543 188.287C31.9352 185.077 31.1338 184.662 27.7527 185.029C23.4253 185.5 22.9708 188.321 16.7975 190.613C13.8231 191.717 -0.0313436 199.12 2.99048 207.147C3.5174 208.55 5.56875 213.8 12.8896 212.874C15.5348 212.539 19.6627 211.613 20.4632 210.732C21.2602 209.854 22.849 209.413 23.7579 208.659C25.8999 206.888 28.3466 206.06 30.9484 204.871C33.763 203.587 35.6137 201.785 38.0806 199.967C38.9285 199.341 41.0821 198.096 41.0821 198.096C38.879 194.238 36.5183 191.648 34.8543 188.287Z" fill="white"/>
<path fill-rule="evenodd" clip-rule="evenodd" d="M36.0241 187.746C35.9729 187.64 35.9034 187.538 35.8237 187.452C33.8221 185.253 32.6399 184.274 31.2239 183.875C30.2612 183.607 29.1705 183.6 27.6017 183.771C25.1564 184.036 23.7935 184.937 22.1818 186.124C20.8288 187.123 19.2599 188.34 16.3293 189.43C14.4634 190.118 8.50262 193.179 4.71749 197.329C1.96499 200.342 0.394329 203.919 1.77296 207.575C2.13454 208.536 3.14447 211.06 5.67873 212.714C7.36539 213.811 9.73392 214.552 13.0667 214.13C15.0016 213.884 17.6995 213.333 19.4324 212.71C20.4002 212.36 21.1112 211.937 21.4404 211.575C21.7417 211.239 22.2129 211.011 22.6797 210.771C23.3762 210.411 24.0807 210.061 24.6021 209.63C26.6522 207.933 29.0133 207.16 31.5069 206.021C34.4077 204.696 36.3225 202.854 38.8673 200.982C39.6807 200.379 41.7491 199.19 41.7491 199.19C42.3517 198.841 42.5584 198.086 42.215 197.487C40.0263 193.654 37.6752 191.085 36.0241 187.746ZM33.7676 188.996C35.2745 191.987 37.3261 194.39 39.3214 197.649C38.6238 198.072 37.7636 198.604 37.2904 198.953C34.8995 200.715 33.1203 202.474 30.3888 203.72C27.6828 204.958 25.1436 205.846 22.9137 207.69C22.424 208.094 21.7079 208.38 21.0664 208.73C20.457 209.06 19.895 209.435 19.4899 209.886C19.4136 209.97 19.254 210.025 19.0701 210.108C18.7241 210.264 18.2961 210.414 17.8193 210.556C16.2697 211.028 14.2368 211.424 12.7137 211.614C10.1902 211.935 8.38964 211.436 7.11315 210.607C5.20201 209.363 4.48232 207.437 4.2101 206.714C3.16995 203.948 4.58137 201.305 6.66117 199.026C10.124 195.231 15.5639 192.434 17.2702 191.801C20.5124 190.596 22.2589 189.257 23.7572 188.153C24.997 187.24 26.0249 186.495 27.907 186.293C29.0411 186.167 29.8278 186.117 30.5225 186.312C31.5609 186.605 32.3362 187.424 33.7676 188.996Z" fill="black"/>
<path fill-rule="evenodd" clip-rule="evenodd" d="M118.045 246.293C118.434 252.429 110.153 265.24 106.409 267.361C103.401 269.061 97.3528 269.799 94.2233 268.599C65.7388 257.678 41.984 237.927 21.9552 214.777C20.4263 213.008 19.2981 211.479 19.3388 211.418C21.968 207.412 27.5545 206.063 33.3367 202.432C35.5543 201.042 40.567 197.053 41.0237 197.616C53.5521 213.033 65.3227 228.269 102.401 242.485C104.63 243.342 118.045 246.293 118.045 246.293Z" fill="#C0D6D1"/>
<path fill-rule="evenodd" clip-rule="evenodd" d="M119.34 246.223C119.305 245.655 118.889 245.18 118.321 245.055C118.321 245.055 105.069 242.15 102.868 241.306C66.12 227.217 54.4566 212.114 42.0398 196.833C41.8011 196.538 41.4522 196.317 40.9416 196.297C40.6717 196.286 40.2211 196.364 39.6725 196.633C38.0586 197.424 34.432 200.236 32.6316 201.363C29.7691 203.161 26.9555 204.39 24.5307 205.667C21.8728 207.069 19.6726 208.555 18.2466 210.73C18.162 210.858 17.8343 211.358 18.2166 212.064C18.3935 212.395 19.501 213.893 20.9659 215.59C41.136 238.901 65.0702 258.781 93.7555 269.777C97.1732 271.089 103.782 270.318 107.066 268.457C109.043 267.339 112.275 263.441 114.904 258.97C117.535 254.495 119.546 249.465 119.34 246.223ZM40.5573 199.076C52.9982 214.403 65.0677 229.531 101.933 243.665C103.811 244.384 113.531 246.582 116.739 247.299C116.529 250.164 114.756 254.11 112.648 257.697C110.298 261.692 107.517 265.261 105.75 266.263C103.019 267.807 97.5319 268.508 94.6901 267.418C66.4079 256.575 42.833 236.948 22.9459 213.963C22.1294 213.019 21.3698 212.036 20.9208 211.447C22.1211 209.978 23.8229 208.932 25.7815 207.901C28.2528 206.596 31.1236 205.335 34.0468 203.501C35.4443 202.624 37.9591 200.711 39.742 199.559C40.0117 199.381 40.3126 199.209 40.5573 199.076Z" fill="black"/>
<path fill-rule="evenodd" clip-rule="evenodd" d="M38.9393 99.7062C107.877 4.33378 208.643 72.4307 216.83 119.649C229.357 191.898 189.976 239.839 133.757 246.186C71.4826 253.221 -11.9574 170.12 38.9393 99.7062Z" fill="#F5F5F5"/>
<path fill-rule="evenodd" clip-rule="evenodd" d="M37.8723 98.9814C12.0553 134.7 20.263 173.634 42.8682 202.749C65.4362 231.815 102.371 251.005 133.908 247.441C190.811 241.018 230.794 192.57 218.114 119.438C215.618 105.036 204.693 88.693 188.666 75.5292C166.308 57.1642 134.064 44.9876 101.292 52.768C79.4777 57.9466 57.4002 71.965 37.8723 98.9814ZM40.0055 100.431C59.0829 74.0388 80.6012 60.2806 101.911 55.2213C133.827 47.6447 165.209 59.5718 186.983 77.4564C202.479 90.1849 213.129 105.931 215.545 119.86C227.919 191.23 189.141 238.663 133.606 244.932C102.869 248.403 66.9457 229.559 44.9493 201.23C22.99 172.948 14.9263 135.129 40.0055 100.431Z" fill="#DC4C3E"/>
<path fill-rule="evenodd" clip-rule="evenodd" d="M64.6888 189.663C70.1643 190.887 118.369 194.084 152.217 193.86C167.191 193.759 179.432 192.893 184.322 191.085C186.452 190.298 188.198 188.155 188.034 184.218C187.847 179.721 184.978 171.418 180.404 161.371C168.768 135.811 146.343 98.166 135.102 84.3537C132.83 81.5627 130.901 79.6635 129.555 78.7812C128.126 77.8447 126.85 77.6451 125.93 77.7209C125.055 77.7934 123.818 78.1828 122.414 79.1875C120.714 80.4047 118.28 82.8442 115.389 86.2598C100.182 104.23 70.3009 150.657 62.1595 172.908C60.0161 178.769 59.4965 183.29 60.3194 185.705C61.0616 187.881 62.5458 189.183 64.6888 189.663ZM126.256 85.5922C127.05 86.3609 128.231 87.5619 129.258 88.8249C140.27 102.354 162.196 139.25 173.594 164.287C175.404 168.26 176.946 171.934 178.13 175.16C179.376 178.556 180.223 181.421 180.51 183.575C180.558 183.94 180.576 184.355 180.58 184.687C175.524 186.08 164.915 186.56 152.166 186.643C120.512 186.852 76.044 184.102 67.3633 182.807C67.3581 182.446 67.3663 181.995 67.4184 181.619C67.6543 179.913 68.2729 177.787 69.1747 175.322C77.1155 153.616 106.311 108.366 121.143 90.8382C122.931 88.726 125.079 86.6752 126.256 85.5922Z" fill="#DC4C3E"/>
<path fill-rule="evenodd" clip-rule="evenodd" d="M120.993 108.399C121.186 116.215 120.201 142.602 120.105 154.064C120.089 156.056 121.743 157.687 123.797 157.701C125.851 157.719 127.532 156.113 127.549 154.125C127.645 142.602 128.628 116.082 128.434 108.227C128.385 106.236 126.678 104.658 124.624 104.706C122.571 104.754 120.944 106.409 120.993 108.399Z" fill="#DC4C3E"/>
<path fill-rule="evenodd" clip-rule="evenodd" d="M219.168 132.972C223.978 133.341 226.609 127.142 226.371 123.916C226.149 120.918 227 116.663 226.047 114.21C224.46 110.115 223.071 106.451 218.446 105.531C216.898 105.221 213.733 104.578 211.947 104.53C210.668 104.496 208.906 104.911 207.699 105.305C206.194 105.796 205.18 109.367 205.39 110.884C205.845 114.17 206.849 115.661 207.703 117.984C208.419 119.932 209.096 124.033 210.314 126.387C211.706 129.077 214.224 131.657 215.733 132.257C216.056 132.386 218.245 132.902 219.168 132.972Z" fill="white"/>
<path fill-rule="evenodd" clip-rule="evenodd" d="M219.078 134.237C221.439 134.418 223.386 133.351 224.837 131.706C226.841 129.429 227.823 126.025 227.665 123.839C227.535 122.069 227.787 119.856 227.807 117.846C227.821 116.308 227.688 114.876 227.26 113.771C225.501 109.238 223.814 105.309 218.694 104.288C217.089 103.969 213.818 103.312 211.968 103.263C210.557 103.225 208.609 103.667 207.277 104.102C206.414 104.383 205.565 105.284 204.995 106.507C204.291 108.015 203.956 109.965 204.105 111.04C204.576 114.449 205.598 115.997 206.483 118.401C207.213 120.385 207.918 124.553 209.158 126.949C210.709 129.947 213.575 132.764 215.257 133.431C215.615 133.575 218.055 134.157 219.078 134.237ZM219.258 131.71C218.44 131.647 216.497 131.199 216.213 131.086C214.871 130.554 212.702 128.212 211.466 125.823C210.27 123.514 209.623 119.479 208.918 117.563C208.096 115.328 207.109 113.894 206.671 110.726C206.567 109.979 206.862 108.631 207.353 107.577C207.502 107.258 207.669 106.965 207.861 106.74C207.946 106.64 208.018 106.54 208.118 106.507C209.2 106.153 210.776 105.765 211.923 105.795C213.651 105.841 216.704 106.473 218.199 106.772C222.33 107.595 223.422 110.99 224.841 114.648C225.263 115.743 225.25 117.24 225.19 118.799C225.124 120.592 224.968 122.456 225.081 123.995C225.203 125.678 224.411 128.287 222.866 130.044C221.948 131.085 220.748 131.825 219.258 131.71Z" fill="black"/>
<path fill-rule="evenodd" clip-rule="evenodd" d="M23.7429 130.452C22.0528 129.611 19.1926 126.208 19.1926 123.267C19.1926 117.641 22.588 111.906 26.4728 108.139C27.851 106.803 31.4656 103.375 33.753 104.484C35.3471 105.257 34.4624 107.304 34.9231 108.644C38.0692 117.796 34.2491 121.159 29.333 128.308C28.5168 129.495 25.433 131.292 23.7429 130.452Z" fill="white"/>
<path fill-rule="evenodd" clip-rule="evenodd" d="M23.1484 131.574C24.1049 132.05 25.3778 132.018 26.6342 131.596C28.2558 131.047 29.8205 129.874 30.4167 129.008C35.5982 121.473 39.4748 117.89 36.1587 108.244C36.0619 107.963 36.0704 107.635 36.0712 107.302C36.0719 106.764 36.0853 106.214 36.0098 105.713C35.8591 104.716 35.4124 103.876 34.3354 103.354C33.0766 102.744 31.5079 102.993 29.9783 103.796C28.1933 104.734 26.437 106.388 25.5516 107.246C21.442 111.232 17.8899 117.316 17.8899 123.267C17.8899 124.97 18.6826 126.821 19.756 128.355C20.8279 129.889 22.1707 131.087 23.1484 131.574ZM24.3371 129.326C23.6248 128.972 22.6925 128.052 21.912 126.937C21.1327 125.825 20.4951 124.501 20.4951 123.267C20.4951 117.965 23.7338 112.581 27.3939 109.034C28.1624 108.288 29.6697 106.832 31.2195 106.017C31.9158 105.651 32.5973 105.336 33.1705 105.614C33.3324 105.692 33.3826 105.831 33.4135 105.977C33.4697 106.24 33.4693 106.528 33.4686 106.82C33.4667 107.597 33.4619 108.388 33.687 109.045C36.6637 117.702 32.9002 120.842 28.2491 127.608C27.8662 128.164 26.8188 128.857 25.7771 129.207C25.2564 129.383 24.7339 129.524 24.3371 129.326Z" fill="black"/>
<path fill-rule="evenodd" clip-rule="evenodd" d="M115.198 41.3113C114.524 41.0173 113.925 40.6788 113.518 40.47C112.887 40.1468 112.099 40.3924 111.759 41.019C111.419 41.6453 111.654 42.416 112.284 42.7396C113.195 43.2068 114.928 44.1659 116.531 44.3757C117.985 44.5659 119.341 44.2142 120.28 42.9386C120.489 42.6549 120.593 42.3308 120.602 41.9849C120.61 41.6574 120.49 41.2871 120.418 41.0534C119.713 38.7789 117.134 39.0649 115.998 39.9224C115.457 40.3312 115.221 40.8462 115.198 41.3113Z" fill="black"/>
<path fill-rule="evenodd" clip-rule="evenodd" d="M142.394 42.1852C142.361 41.998 142.292 41.8101 142.18 41.625C141.967 41.2689 141.505 40.8644 140.876 40.6401C139.581 40.1779 137.761 40.4289 137.309 42.3244C137.254 42.5564 137.162 42.924 137.192 43.242C137.223 43.5848 137.348 43.9002 137.575 44.1693C138.563 45.344 139.894 45.607 141.285 45.3378C142.801 45.044 144.394 44.0298 145.233 43.5307C145.84 43.1705 146.023 42.3849 145.643 41.7779C145.262 41.1708 144.461 40.9708 143.854 41.331C143.498 41.5429 142.982 41.8781 142.394 42.1852Z" fill="black"/>
<ellipse cx="123.635" cy="169.997" rx="4.97101" ry="5.13238" fill="#DC4C3E"/>
</svg>
