<svg width="20" height="20" viewBox="0 0 20 20" fill="none" xmlns="http://www.w3.org/2000/svg">
    <path d="M5.62853 20C5.29256 20 4.97636 19.897 4.67992 19.6703C4.12657 19.2375 3.88942 18.5163 4.08705 17.8362L5.39138 13.3232C5.45066 13.1584 5.39138 12.9523 5.25304 12.8492L1.63649 9.98482C1.08313 9.55206 0.865746 8.8308 1.08313 8.13015C1.30052 7.45011 1.87364 6.99675 2.58509 6.97614L7.11072 6.8731C7.28858 6.8731 7.44668 6.74946 7.50597 6.5846L8.9684 2.13341C9.20555 1.45336 9.79843 1 10.4901 1C11.1818 1 11.7747 1.43275 12.0118 2.13341L13.494 6.5846C13.5533 6.74946 13.7114 6.8731 13.8893 6.8731L18.4149 6.97614C19.1066 6.99675 19.6995 7.45011 19.9169 8.13015C20.1343 8.8102 19.9169 9.55206 19.3635 9.98482L15.7272 12.8492C15.5889 12.9523 15.5296 13.1584 15.5889 13.3232L16.8932 17.8362C17.0908 18.5369 16.8537 19.2581 16.3003 19.6703C15.747 20.103 15.0157 20.103 14.4426 19.6909L10.7273 16.9913C10.5889 16.8883 10.3913 16.8883 10.253 16.9913L6.5376 19.6909C6.26093 19.897 5.94473 20 5.62853 20ZM10.4901 2.25705C10.4111 2.25705 10.1937 2.27766 10.0949 2.54555L8.61267 6.99675C8.39529 7.65618 7.80241 8.10954 7.13048 8.13015L2.60485 8.23319C2.32818 8.23319 2.22936 8.45987 2.2096 8.5423C2.18984 8.60412 2.13055 8.85141 2.34794 9.01627L5.94473 11.8601C6.47832 12.2722 6.69571 13.0141 6.51784 13.6735L5.21351 18.1866C5.13446 18.4544 5.31232 18.6193 5.37161 18.6605C5.4309 18.7017 5.62853 18.8254 5.86568 18.6605L9.58104 15.961C10.1344 15.5694 10.8656 15.5694 11.419 15.961L15.1343 18.6605C15.3517 18.8254 15.5691 18.7017 15.6284 18.6605C15.6877 18.6193 15.8655 18.4544 15.7865 18.1866L14.4426 13.6735C14.245 13.0141 14.4822 12.2722 15.0157 11.8601L18.6125 9.01627C18.8299 8.85141 18.7706 8.60412 18.7509 8.5423C18.7311 8.48048 18.6323 8.2538 18.3556 8.23319L13.8498 8.13015C13.1778 8.10954 12.585 7.65618 12.3676 6.99675L10.8854 2.54555C10.7866 2.27766 10.5692 2.25705 10.4901 2.25705Z"
          fill="#FFE190"/>
    <path d="M2.1316 9.88781C1.09781 9.1748 -0.190476 8.0623 0.490056 7.35435C1.70566 6.09015 6.09536 7.52629 6.98369 6.41379C7.70058 5.51368 8.57844 0.315233 9.75768 0.300062C11.1863 0.289949 11.5136 5.92829 12.885 6.74749C13.9344 7.37454 19.8098 6.04967 19.2644 7.5212C18.3709 9.94341 14.8954 10.9194 14.5682 12.482C14.3136 13.7057 16.7916 17.8371 15.7318 19.1013C14.7188 20.2998 11.685 15.6879 9.87716 15.6525C7.78361 15.6171 4.68229 20.1278 3.68487 19.0103C2.80174 18.0191 4.91085 13.7461 4.83812 12.5932C4.7602 11.3998 2.95759 10.4542 2.1316 9.88781Z"
          stroke="#202020" stroke-width="0.5"/>
</svg>
