<svg width="20" height="20" viewBox="0 0 20 20" fill="none" xmlns="http://www.w3.org/2000/svg">
    <path d="M9.99999 7.625C9.99999 10.025 9.52511 14.275 9.99994 14.75M9.76912 5.63173C9.73562 5.79852 9.83881 5.90696 9.86561 5.92036C9.89644 5.93578 9.93773 5.92861 9.97137 5.92861C10.064 5.92861 10.1718 5.88451 10.2181 5.79852C10.2458 5.74716 10.2468 5.66491 10.2089 5.61854C10.1929 5.59897 10.174 5.58131 10.1513 5.56947C10.11 5.54781 10.0925 5.52123 10.0513 5.49902C10.0137 5.4788 9.91913 5.48954 9.87674 5.49896C9.85289 5.50426 9.82264 5.50623 9.80973 5.52989C9.79285 5.56084 9.77102 5.59572 9.76912 5.63173ZM9.76912 5.63173C9.76717 5.66885 9.74845 5.70357 9.7885 5.72822C9.824 5.75006 9.89658 5.75624 9.93611 5.74306M19.5 10C19.5 15.2467 15.2467 19.5 10 19.5C4.75329 19.5 0.5 15.2467 0.5 10C0.5 4.75329 4.75329 0.5 10 0.5C15.2467 0.5 19.5 4.75329 19.5 10Z"
          stroke="#202020" stroke-width="0.5" stroke-linecap="round"/>
</svg>
