<svg width="20" height="20" viewBox="0 0 20 20" fill="none" xmlns="http://www.w3.org/2000/svg">
    <path d="M11.552 16.1042C14.0661 16.1042 16.1042 14.0661 16.1042 11.552C16.1042 9.03803 14.0661 7 11.552 7C9.03803 7 7 9.03803 7 11.552C7 14.0661 9.03803 16.1042 11.552 16.1042Z"
          fill="#FFE190"/>
    <path d="M9.8645 1V2.4375M3.5874 3.5874L4.59365 4.59365M1 9.8645H2.4375M3.5874 16.1417L4.59365 15.1355M9.8645 18.7292V17.2917M16.1417 16.1417L15.1355 15.1355M18.729 9.8645H17.2915M16.1417 3.5874L15.1355 4.59365M11.2542 14.225C10.8229 14.3209 10.3437 14.4167 9.86458 14.4167C7.37292 14.4167 5.3125 12.3563 5.3125 9.86463C5.3125 9.33755 5.40833 8.81047 5.6 8.3313M8.0437 5.69583C8.6187 5.45625 9.1937 5.3125 9.86453 5.3125C12.3562 5.3125 14.4166 7.37292 14.4166 9.86458C14.4166 10.3917 14.3208 10.9187 14.177 11.35"
          stroke="white" stroke-width="0.5"/>
</svg>
