<svg width="20" height="20" viewBox="0 0 20 20" fill="none" xmlns="http://www.w3.org/2000/svg">
    <path d="M16.8583 17.7292H4.85C3.8875 17.7292 3.0625 16.95 3.0625 15.9417V4.85C3.0625 3.8875 3.84167 3.0625 4.85 3.0625H16.8583C17.8208 3.0625 18.6458 3.84167 18.6458 4.85V15.9417C18.6458 16.95 17.8667 17.7292 16.8583 17.7292Z"
          fill="#A4B59F"/>
    <path d="M17.0417 7.41666V2.83333C17.0417 1.825 16.2167 1 15.2083 1H2.83333C1.825 1 1 1.825 1 2.83333V4.66666L17.0417 4.6665M8.2875 16.1249H2.83333C1.825 16.1249 1 15.2999 1 14.2916V7.1416M7.875 7.4165H13.8333M4.2085 7.4165H5.12516M13.7875 13.5479L16.3542 10.9812C16.9959 10.3396 18.0042 10.3396 18.6459 10.9812C19.2875 11.6229 19.2875 12.6312 18.6459 13.2729L16.2167 15.7021L14.2917 17.5812L13.6959 18.1771C13.6042 18.2687 13.5125 18.3146 13.4209 18.3604L11.0834 18.9562C10.8084 19.0479 10.5334 18.7729 10.625 18.4979L11.2209 16.1604C11.2667 16.0687 11.3125 15.9771 11.4042 15.8854L12.275 15.0146M15.8682 12.1138L17.6319 13.8855M7.875 10.1665H13.8333M4.2085 10.1665H5.12516M7.875 12.9165H10.2583M4.2085 12.9165H5.12516"
          stroke="#202020" stroke-width="0.5"/>
</svg>
