<svg width="250" height="300" viewBox="0 0 250 300" fill="none" xmlns="http://www.w3.org/2000/svg">
    <path fill-rule="evenodd" clip-rule="evenodd" d="M122.398 275.519C122.398 275.519 119.562 276.092 118.967 276.264C109.782 278.894 112.087 286.083 112.947 287.717C113.251 288.295 113.548 289.048 112.482 290.061C111.297 291.189 98.3784 290.475 98.3784 290.475L97.8603 252.048L96.0365 254.432C87.1539 247.495 80.736 244.916 73.848 241.516C73.848 241.516 93.2175 207.534 101.988 198.809C112.892 187.965 124.131 180.833 124.131 180.833C133.934 186.012 136.986 183.453 141.006 182.104C141.006 182.104 151.346 184.159 166.722 198.851C175.746 207.471 186.607 224.911 192.698 241.313C179.234 243.349 172.232 246.893 166.851 250.816C166.754 253.635 175.533 270.261 174.224 272.26C173.866 272.808 150.544 274.464 126.966 275.349C126.43 275.369 136.981 261.14 136.981 261.14C136.981 261.14 134.791 258.65 134.03 259.646C132.279 261.938 122.398 275.519 122.398 275.519Z" fill="#FFE190"/>
    <path fill-rule="evenodd" clip-rule="evenodd" d="M122.419 275.615C122.445 275.611 122.468 275.596 122.483 275.576C122.483 275.576 132.364 261.996 134.114 259.705C134.312 259.445 134.624 259.474 134.96 259.618C135.732 259.951 136.628 260.904 136.85 261.146C136.173 262.061 128.288 272.716 127.025 274.908C126.939 275.057 126.882 275.172 126.859 275.241C126.842 275.29 126.84 275.328 126.845 275.349C126.85 275.381 126.866 275.404 126.885 275.418C126.906 275.436 126.934 275.448 126.97 275.448C145.836 274.74 164.537 273.538 171.446 272.804C172.839 272.658 173.756 272.528 174.102 272.426C174.177 272.404 174.229 272.382 174.26 272.363C174.285 272.347 174.301 272.329 174.312 272.313C174.438 272.12 174.484 271.803 174.448 271.379C174.374 270.449 173.93 268.982 173.287 267.247C171.801 263.222 169.256 257.732 167.886 254.122C167.321 252.632 166.954 251.467 166.954 250.866C172.319 246.962 179.308 243.438 192.715 241.411C192.746 241.405 192.773 241.39 192.787 241.364C192.804 241.338 192.806 241.309 192.796 241.279C186.698 224.864 175.827 207.41 166.796 198.782C151.39 184.062 141.028 182.008 141.028 182.008C141.009 182.004 140.99 182.006 140.972 182.012C138.971 182.682 137.211 183.658 134.731 183.818C132.253 183.977 129.057 183.323 124.182 180.746C124.148 180.729 124.106 180.731 124.074 180.75C124.074 180.75 112.826 187.888 101.913 198.742C93.1383 207.469 73.7569 241.468 73.7569 241.468C73.7437 241.492 73.741 241.52 73.7491 241.545C73.7572 241.571 73.7756 241.593 73.8005 241.604C80.6827 245.001 87.0956 247.578 95.9709 254.509C95.9929 254.526 96.0215 254.534 96.0497 254.53C96.0781 254.526 96.1036 254.513 96.1204 254.491L97.7609 252.346C97.809 255.914 98.2749 290.475 98.2749 290.475C98.2755 290.528 98.3182 290.57 98.3725 290.574C98.3725 290.574 104.709 290.923 108.918 290.745C110.189 290.692 111.268 290.589 111.923 290.416C112.224 290.337 112.441 290.24 112.556 290.13C113.113 289.6 113.31 289.137 113.332 288.73C113.354 288.324 113.199 287.975 113.04 287.674C112.53 286.704 111.506 283.761 112.728 280.999C113.544 279.156 115.363 277.399 118.997 276.359C119.591 276.189 122.419 275.615 122.419 275.615ZM174.142 272.199C174.135 272.203 174.119 272.211 174.104 272.217C174.054 272.235 173.984 272.254 173.893 272.274C173.47 272.369 172.626 272.481 171.423 272.609C164.532 273.34 145.904 274.539 127.084 275.245C127.112 275.184 127.155 275.093 127.207 275.002C128.525 272.714 137.066 261.197 137.066 261.197C137.093 261.162 137.09 261.112 137.06 261.077C137.06 261.077 135.967 259.837 135.046 259.439C134.607 259.25 134.205 259.25 133.946 259.589C132.245 261.816 122.866 274.703 122.336 275.432C121.988 275.503 119.492 276.01 118.937 276.169C115.223 277.234 113.371 279.038 112.537 280.922C111.285 283.751 112.332 286.769 112.855 287.763C112.999 288.037 113.145 288.352 113.125 288.721C113.105 289.089 112.917 289.507 112.409 289.99C112.276 290.118 111.981 290.213 111.57 290.296C110.918 290.424 109.983 290.503 108.909 290.548C105.013 290.712 99.29 290.424 98.481 290.382L97.9641 252.046C97.9637 252.005 97.9344 251.968 97.8919 251.954C97.8494 251.942 97.803 251.956 97.7767 251.989L96.0174 254.29C87.2117 247.428 80.8259 244.845 73.9896 241.474C75.0789 239.57 93.5573 207.339 102.063 198.878C112.526 188.472 123.297 181.486 124.136 180.947C129.032 183.528 132.25 184.176 134.744 184.015C137.235 183.853 139.006 182.883 141.013 182.207C141.612 182.337 151.765 184.699 166.649 198.92C175.645 207.515 186.464 224.88 192.559 241.234C179.151 243.278 172.161 246.821 166.789 250.739C166.764 250.757 166.749 250.785 166.748 250.814C166.727 251.412 167.098 252.626 167.691 254.189C169.06 257.797 171.604 263.287 173.092 267.312C173.636 268.785 174.04 270.06 174.189 270.973C174.285 271.547 174.285 271.97 174.142 272.199Z" fill="black"/>
    <path fill-rule="evenodd" clip-rule="evenodd" d="M0.829144 291.483L248.205 291.492C248.661 291.492 249.034 291.138 249.034 290.704C249.034 290.268 248.661 289.915 248.205 289.915L0.829353 289.906C0.37155 289.906 8.66864e-08 290.26 8.66864e-08 290.694C-0.000207251 291.13 0.371549 291.483 0.829144 291.483Z" fill="black"/>
    <path fill-rule="evenodd" clip-rule="evenodd" d="M122.217 275.641C122.217 275.641 132.841 260.056 133.997 259.506C134.732 259.157 136.51 260.034 137.148 261.15C137.552 261.858 127.135 275.284 127.135 275.284L122.217 275.641ZM108.114 298.463C108.114 298.463 110.688 297.722 110.781 297.655C111.073 297.448 115.815 291.289 115.815 291.289L113.461 288.993C113.461 288.993 109.333 294.108 108.363 295.954C108.172 296.318 108.114 298.463 108.114 298.463Z" fill="#637E60"/>
    <path fill-rule="evenodd" clip-rule="evenodd" d="M24.282 256.172C25.1545 255.528 63.4258 255.845 63.5172 256.015C64.7913 258.396 85.0128 299.036 84.6553 299.234C83.5606 299.841 42.8219 299.523 42.8219 299.523L39.9134 293.063C47.7811 289.393 43.7962 282.876 41.4998 280.818C38.4394 278.076 33.2458 273.808 32.6344 274.423C32.6344 274.423 23.5729 256.697 24.282 256.172Z" fill="#D9D9D9"/>
    <path fill-rule="evenodd" clip-rule="evenodd" d="M106.052 194.626C100.669 181.042 103.837 151.845 105.768 146.424C110.073 134.342 113.178 130.037 122.706 126.214C128.923 123.72 134.609 125.455 135.935 125.875C137.593 126.4 150.889 129.183 158.688 152.131C164.738 169.936 164.268 185.888 161.407 193.4C161.268 193.767 157.316 190.471 151.944 186.974C148.758 184.9 141.365 181.795 141.365 181.795L140.975 167.387C140.975 167.387 142.35 166.141 143.07 165.475C146.768 162.056 149.36 157.008 150.113 154.859C150.469 153.844 151.541 152.088 150.954 150.97C149.913 148.991 149.268 147.883 146.928 148.805C145.499 149.367 129.534 147.126 123.718 146.389C121.67 146.128 110.554 143.79 110.604 144.151C110.688 144.746 110.497 146.96 110.21 147.778C110.002 148.372 109.531 149.245 109.376 150.132C109.186 151.222 110.025 152.929 110.333 153.807C110.892 155.399 110.998 156.641 111.29 158.299C111.978 162.21 116.772 169.116 123.864 171.065C124.241 171.168 123.786 180.474 123.786 180.474L106.052 194.626Z" fill="#8A7668"/>
    <path fill-rule="evenodd" clip-rule="evenodd" d="M110.716 144.216C110.76 144.214 110.828 144.212 110.897 144.216C112.678 144.334 121.862 146.252 123.704 146.485C128.358 147.076 139.511 148.63 144.517 148.939C145.272 148.985 145.889 149.004 146.323 148.987C146.627 148.975 146.847 148.943 146.968 148.896C147.869 148.539 148.509 148.49 149.017 148.689C149.395 148.837 149.698 149.123 149.982 149.511C150.277 149.913 150.551 150.426 150.861 151.015C151.086 151.441 151.051 151.967 150.913 152.505C150.698 153.349 150.228 154.222 150.015 154.83C149.264 156.97 146.681 161.997 142.998 165.404C142.278 166.07 140.903 167.316 140.903 167.316C140.882 167.333 140.87 167.361 140.871 167.389L141.261 181.797C141.262 181.836 141.286 181.87 141.323 181.886C141.323 181.886 148.705 184.985 151.885 187.056C156.184 189.854 159.574 192.523 160.829 193.292C160.994 193.392 161.123 193.461 161.215 193.497C161.293 193.524 161.353 193.53 161.392 193.524C161.45 193.514 161.486 193.483 161.505 193.434C164.37 185.909 164.846 169.932 158.786 152.101C150.968 129.094 137.63 126.309 135.968 125.78C134.634 125.358 128.916 123.615 122.665 126.123C113.108 129.958 109.988 134.273 105.67 146.392C103.736 151.819 100.564 181.058 105.955 194.662C105.967 194.691 105.993 194.715 106.026 194.723C106.058 194.731 106.093 194.723 106.118 194.703L123.853 180.549C123.875 180.531 123.888 180.506 123.89 180.478C123.89 180.478 124.181 174.517 124.104 172.08C124.089 171.578 124.054 171.219 124.003 171.085C123.974 171.012 123.927 170.978 123.893 170.971C116.843 169.033 112.076 162.171 111.392 158.283C111.099 156.619 110.992 155.374 110.431 153.775C110.247 153.25 109.872 152.426 109.642 151.618C109.493 151.092 109.405 150.571 109.479 150.148C109.632 149.266 110.101 148.399 110.308 147.81C110.587 147.013 110.776 144.914 110.716 144.216ZM161.326 193.323C161.315 193.321 161.303 193.317 161.292 193.313C161.208 193.282 161.091 193.217 160.941 193.126C159.687 192.359 156.299 189.69 152.002 186.893C148.98 184.925 142.176 182.03 141.467 181.73L141.079 167.428C141.293 167.233 142.488 166.151 143.142 165.546C146.853 162.113 149.455 157.047 150.212 154.891C150.426 154.28 150.898 153.4 151.115 152.553C151.265 151.965 151.292 151.392 151.046 150.926C150.732 150.327 150.452 149.809 150.152 149.399C149.842 148.975 149.508 148.669 149.096 148.508C148.549 148.293 147.859 148.33 146.888 148.715C146.781 148.756 146.585 148.78 146.314 148.789C145.885 148.807 145.277 148.787 144.53 148.742C139.527 148.433 128.383 146.879 123.732 146.29C121.888 146.057 112.695 144.139 110.911 144.021C110.78 144.011 110.684 144.013 110.631 144.023C110.518 144.044 110.495 144.113 110.502 144.163C110.584 144.752 110.395 146.94 110.112 147.747C109.902 148.344 109.43 149.223 109.274 150.116C109.196 150.564 109.285 151.114 109.442 151.669C109.673 152.482 110.049 153.31 110.234 153.838C110.791 155.425 110.897 156.663 111.188 158.317C111.878 162.246 116.687 169.181 123.805 171.15C123.813 171.18 123.835 171.25 123.845 171.325C123.87 171.501 123.887 171.761 123.897 172.086C123.97 174.397 123.711 179.885 123.684 180.425L106.098 194.461C100.793 180.841 103.944 151.851 105.866 146.455C110.157 134.411 113.248 130.115 122.746 126.305C128.928 123.824 134.583 125.55 135.902 125.968C137.555 126.492 150.811 129.273 158.589 152.162C164.619 169.904 164.168 185.805 161.326 193.323Z" fill="#1A1A1A"/>
    <path fill-rule="evenodd" clip-rule="evenodd" d="M8.52562 52.7576C6.58224 46.7586 3.05811 35.1225 20.3485 26.255C22.3022 25.253 20.3974 26.1527 21.58 21.8034C26.2362 4.68221 46.1249 7.70718 48.3748 8.83969C49.049 9.17915 49.1618 9.59372 50.479 9.54621C51.2883 9.51704 63.6112 -6.76694 83.5826 4.07958C85.3954 5.06405 89.0182 9.82298 89.4528 9.70687C113.716 3.2264 119.103 19.0743 119.11 23.7235C119.111 24.568 118.769 26.2735 119.328 26.5209C142.296 36.6704 132.383 53.183 127.919 57.9603C125.21 60.8583 122.293 60.8654 121.608 62.3433C115.451 75.6276 99.9277 75.5538 94.2597 73.8871C91.0402 72.9403 90.2931 72.035 90.2931 72.035C76.6289 85.9079 57.7375 81.5628 52.0225 73.6941C51.4506 72.9068 50.6613 72.3493 50.6613 72.3493C50.6613 72.3493 29.1626 81.145 21.0972 64.6137C20.8023 64.0093 20.2593 62.2944 19.9842 62.2134C13.9817 60.4444 10.1796 57.8633 8.52562 52.7576ZM123.902 180.565C123.902 180.565 133.896 187.388 141.163 181.852C141.807 181.361 140.576 167.88 140.698 167.343C140.698 167.343 147.335 162.557 150.096 155.257C150.961 152.971 150.804 151.466 150.616 151.021C149.389 148.103 149.779 148.817 147.004 148.817C143.965 148.817 131.708 148.31 119.736 145.537C118.816 145.324 111.976 143.516 111.14 144.112C110.123 144.837 110.69 146.651 109.716 148.492C108.626 150.55 110.422 153.095 110.58 154.177C111.707 161.887 112.979 166.176 123.764 170.931L123.902 180.565ZM32.2598 274.381C32.3359 274.279 27.0552 279.142 29.9457 285.281C31.3303 288.22 35.7657 293.887 39.7661 292.799C41.0593 292.448 46.893 290.02 43.8224 283.863C43.4237 282.089 33.6944 273.017 32.2598 274.381ZM64.3811 257.111C63.5538 257.203 68.3926 251.962 73.4488 241.721C74.099 240.404 96.0787 254.035 96.0787 254.035C91.6933 264.761 79.4201 281.695 77.2833 282.434C76.3103 282.769 65.8807 260.702 64.3811 257.111ZM112.239 282.807C114.191 275.223 123.665 275.897 128.592 275.509C144.607 274.247 174.071 273.072 174.224 272.398C175.072 268.645 166.446 252.681 166.858 251.031C174.166 246.19 182.501 242.673 192.53 241.342C193.353 241.362 195.387 248.567 197.407 255.685C200.54 266.729 202.821 277.342 195.972 287.063C191.504 293.406 182.862 295.855 166.28 296.744C154.396 297.381 145.02 296.679 139.662 296.86C119.289 297.542 110.843 288.228 112.239 282.807Z" fill="white"/>
    <path fill-rule="evenodd" clip-rule="evenodd" d="M174.129 272.353C174.11 272.361 174.073 272.377 174.038 272.389C173.895 272.43 173.654 272.473 173.327 272.519C168.299 273.211 142.995 274.275 128.584 275.411C126.115 275.606 122.507 275.535 119.273 276.365C116.01 277.201 113.125 278.951 112.138 282.783C111.573 284.977 112.592 287.806 115.349 290.363C119.449 294.164 127.403 297.369 139.665 296.959C145.024 296.778 154.401 297.479 166.286 296.843C174.589 296.397 180.903 295.561 185.701 294.043C190.519 292.52 193.812 290.308 196.057 287.118C202.924 277.372 200.648 266.731 197.508 255.66C195.889 249.959 194.262 244.203 193.254 242.117C193.098 241.794 192.955 241.557 192.829 241.417C192.723 241.299 192.619 241.248 192.532 241.244C192.528 241.244 192.522 241.246 192.516 241.246C182.47 242.578 174.119 246.101 166.799 250.951C166.778 250.964 166.763 250.986 166.757 251.01C166.706 251.217 166.782 251.639 166.969 252.226C167.387 253.545 168.34 255.739 169.421 258.223C171.039 261.939 172.945 266.307 173.768 269.365C174.112 270.642 174.27 271.687 174.129 272.353ZM112.34 282.831C113.305 279.079 116.133 277.374 119.327 276.554C122.549 275.728 126.142 275.801 128.601 275.608C143.016 274.47 168.328 273.406 173.358 272.714C173.76 272.659 174.036 272.603 174.171 272.552C174.229 272.531 174.268 272.507 174.289 272.485C174.309 272.463 174.322 272.442 174.326 272.42C174.482 271.734 174.328 270.646 173.969 269.315C173.144 266.25 171.235 261.872 169.613 258.148C168.535 255.67 167.584 253.486 167.167 252.171C167.006 251.662 166.922 251.29 166.952 251.091C174.237 246.271 182.543 242.77 192.534 241.443C192.549 241.445 192.563 241.453 192.578 241.461C192.607 241.48 192.638 241.51 192.671 241.546C192.789 241.676 192.92 241.898 193.065 242.2C194.071 244.28 195.694 250.024 197.307 255.711C200.432 266.725 202.717 277.313 195.885 287.01C193.664 290.164 190.401 292.348 185.636 293.856C180.851 295.37 174.554 296.202 166.275 296.645C154.392 297.282 145.016 296.58 139.658 296.762C127.474 297.17 119.568 293.998 115.494 290.221C112.802 287.727 111.788 284.971 112.34 282.831ZM32.1991 274.301H32.1972C32.1862 274.309 32.1375 274.352 32.0606 274.429C31.2789 275.204 27.2236 279.742 29.851 285.32C30.687 287.095 32.6281 289.858 34.9162 291.548C36.4609 292.687 38.1644 293.338 39.7947 292.894C41.1055 292.539 47.6972 290.02 43.9238 283.844C43.8384 283.463 43.3383 282.752 42.5799 281.882C40.8405 279.887 37.7458 277.035 35.3751 275.413C34.4947 274.811 33.712 274.378 33.1333 274.216C32.7149 274.1 32.3938 274.127 32.1991 274.301ZM32.3154 274.464C32.3216 274.46 32.3276 274.456 32.333 274.451C32.484 274.309 32.7411 274.313 33.0749 274.405C33.638 274.563 34.3975 274.987 35.254 275.572C37.6121 277.187 40.6902 280.025 42.4202 282.009C43.1486 282.842 43.639 283.519 43.7211 283.885C46.8929 289.135 42.4202 291.236 39.7377 292.705C38.1675 293.133 36.5314 292.49 35.0435 291.392C32.7829 289.722 30.8659 286.994 30.0403 285.24C27.4649 279.771 31.4442 275.326 32.2103 274.565C32.2565 274.52 32.3007 274.478 32.3154 274.464ZM64.3087 257.206C65.5747 260.212 72.4241 274.762 75.6209 280.321C76.189 281.309 76.6437 282.014 76.9323 282.326C77.0167 282.417 77.0901 282.478 77.1485 282.507C77.2153 282.541 77.2729 282.543 77.3188 282.527C77.4977 282.464 77.7465 282.296 78.0517 282.03C78.4915 281.644 79.0575 281.052 79.7177 280.29C84.0985 275.227 92.6634 262.66 96.1753 254.071C96.1931 254.028 96.1764 253.979 96.1353 253.953C96.1353 253.953 82.061 245.224 76.0981 242.407C75.0405 241.908 74.2336 241.595 73.8 241.542C73.6679 241.524 73.5653 241.534 73.4938 241.559C73.4268 241.585 73.3812 241.624 73.3549 241.68C69.312 249.868 65.4076 254.86 64.431 256.48C64.2724 256.744 64.1907 256.928 64.1849 257.026C64.181 257.093 64.2044 257.141 64.2386 257.17C64.2567 257.186 64.2799 257.198 64.3087 257.206ZM77.258 282.338C77.2514 282.334 77.2379 282.328 77.2283 282.322C77.1883 282.296 77.1417 282.255 77.0878 282.196C76.8045 281.89 76.3604 281.196 75.8027 280.226C72.5881 274.638 65.6765 259.946 64.4773 257.075C64.4636 257.042 64.4329 257.02 64.3974 257.014C64.4016 256.995 64.4078 256.971 64.4159 256.949C64.4509 256.859 64.5171 256.734 64.611 256.579C65.5884 254.956 69.4959 249.959 73.5425 241.762C73.55 241.749 73.5674 241.743 73.5885 241.737C73.6356 241.727 73.6976 241.727 73.7735 241.737C74.195 241.788 74.9775 242.097 76.0059 242.584C81.7162 245.281 94.873 253.407 95.9516 254.073C92.4279 262.644 83.9169 275.127 79.5576 280.163C78.9049 280.918 78.3461 281.504 77.9113 281.884C77.6393 282.123 77.4199 282.279 77.258 282.338ZM32.1723 274.328C32.1653 274.34 32.1607 274.35 32.1582 274.362C32.1599 274.352 32.1636 274.342 32.1723 274.328ZM123.799 180.567C123.799 180.599 123.815 180.628 123.842 180.646C123.842 180.646 127.458 183.114 131.929 183.889C134.921 184.405 138.294 184.165 141.227 181.931C141.277 181.892 141.328 181.799 141.361 181.649C141.422 181.373 141.45 180.867 141.454 180.208C141.469 177.23 140.98 171.056 140.834 168.485C140.801 167.915 140.784 167.529 140.795 167.399C141.31 167.016 147.538 162.313 150.194 155.289C151.072 152.967 150.903 151.437 150.712 150.984C150.342 150.103 150.117 149.551 149.909 149.21C149.758 148.961 149.612 148.817 149.436 148.736C149.262 148.656 149.055 148.636 148.773 148.644C148.381 148.656 147.835 148.719 147.004 148.719C143.967 148.719 131.722 148.212 119.761 145.442C119.116 145.293 115.566 144.36 113.207 144.019C112.594 143.93 112.06 143.881 111.676 143.895C111.395 143.907 111.19 143.954 111.078 144.033C110.651 144.338 110.483 144.821 110.378 145.421C110.229 146.268 110.202 147.355 109.623 148.447C109.066 149.499 109.24 150.678 109.581 151.729C109.911 152.752 110.399 153.653 110.477 154.191C111.043 158.063 111.649 161.075 113.464 163.716C115.272 166.348 118.282 168.617 123.662 170.994L123.799 180.567ZM124.005 180.514L123.868 170.931C123.867 170.892 123.844 170.858 123.808 170.843C118.44 168.475 115.436 166.228 113.637 163.608C111.838 160.99 111.244 158.002 110.683 154.163C110.603 153.619 110.113 152.707 109.779 151.672C109.454 150.666 109.276 149.543 109.808 148.535C110.398 147.422 110.431 146.318 110.582 145.454C110.677 144.912 110.816 144.467 111.203 144.191C111.292 144.128 111.459 144.102 111.684 144.092C112.058 144.08 112.578 144.128 113.176 144.214C115.528 144.555 119.068 145.484 119.712 145.634C131.695 148.407 143.962 148.916 147.004 148.916C147.838 148.916 148.386 148.851 148.779 148.841C149.019 148.833 149.197 148.845 149.345 148.914C149.491 148.981 149.605 149.103 149.729 149.308C149.934 149.643 150.154 150.189 150.52 151.057C150.705 151.496 150.849 152.975 149.999 155.224C147.247 162.496 140.635 167.265 140.635 167.265C140.616 167.281 140.602 167.3 140.597 167.324C140.577 167.411 140.589 167.838 140.627 168.495C140.773 171.063 141.261 177.232 141.246 180.206C141.243 180.849 141.217 181.34 141.158 181.61C141.146 181.661 141.134 181.705 141.12 181.738C141.112 181.756 141.107 181.77 141.098 181.776C138.217 183.97 134.904 184.202 131.966 183.694C127.823 182.978 124.42 180.79 124.005 180.514ZM50.471 9.44813C49.5894 9.47947 49.2707 9.29653 48.9379 9.07101C48.7855 8.96792 48.6302 8.85713 48.4233 8.75305C47.743 8.41043 45.4635 7.89237 42.4781 7.80623C35.5306 7.60614 24.7554 9.73338 21.4797 21.779C20.8813 23.9798 21.0663 24.8529 21.1515 25.3022C21.1739 25.4204 21.1915 25.5052 21.1776 25.5779C21.1635 25.6531 21.1088 25.7092 20.9966 25.7855C20.856 25.8811 20.6356 25.9961 20.2991 26.1685C13.355 29.7299 9.75763 33.7389 8.06182 37.6496C5.51757 43.5178 7.25527 49.1715 8.42652 52.7869C10.091 57.9251 13.9129 60.5276 19.9535 62.3079C19.9578 62.3091 19.9614 62.3136 19.9661 62.3178C19.9802 62.3302 19.9947 62.3467 20.0101 62.3667C20.0667 62.4408 20.1293 62.5553 20.1959 62.6945C20.4685 63.2646 20.7965 64.2321 21.003 64.6553C25.0579 72.9664 32.4883 74.9128 38.906 74.7796C44.929 74.6544 50.0571 72.6951 50.6459 72.4625C50.8211 72.5932 51.4573 73.0894 51.9372 73.7504C53.6619 76.125 56.5783 78.1824 60.1891 79.52C68.5736 82.6258 80.7044 81.8542 90.2931 72.1792C90.5596 72.4268 91.5463 73.1927 94.229 73.9816C99.9232 75.6558 115.518 75.7287 121.703 62.3834C121.969 61.8103 122.586 61.4723 123.392 61.0849C124.649 60.4813 126.36 59.7769 127.996 58.026C130.688 55.1458 135.347 48.0187 133.661 40.5758C132.538 35.616 128.6 30.5098 119.372 26.4317C119.308 26.4037 119.262 26.3487 119.227 26.2768C119.183 26.1898 119.155 26.0798 119.137 25.9543C119.046 25.3185 119.214 24.3114 119.213 23.7235C119.209 20.9164 117.258 14.0501 110.422 10.4164C105.878 8.00099 99.1705 7.011 89.4348 9.60977C89.424 9.60524 89.3821 9.58711 89.3493 9.56522C89.2436 9.49465 89.0993 9.36533 88.9241 9.19264C87.7114 7.99764 85.0898 4.78481 83.6341 3.99431C67.594 -4.71709 56.4682 4.00279 52.2435 7.85432C51.5087 8.52437 50.9839 9.04638 50.6797 9.30107C50.6186 9.35252 50.567 9.39254 50.5247 9.41974C50.5043 9.43295 50.4761 9.44576 50.471 9.44813ZM8.62474 52.7287C7.46385 49.1453 5.73154 43.5415 8.2536 37.7247C9.93553 33.8456 13.5096 29.8746 20.3976 26.342C20.8177 26.1266 21.063 25.9959 21.2004 25.8845C21.3132 25.793 21.3634 25.7094 21.3818 25.613C21.399 25.5218 21.3835 25.4153 21.3555 25.2673C21.2724 24.8286 21.0963 23.9769 21.6806 21.8283C24.9232 9.90429 35.5944 7.80524 42.4718 8.00336C45.4111 8.08812 47.6565 8.59002 48.3263 8.92711C48.5238 9.02666 48.6721 9.13311 48.8174 9.23168C49.179 9.47651 49.5238 9.67956 50.483 9.64506C50.5091 9.64408 50.5425 9.63619 50.5817 9.61707C50.6379 9.58947 50.7169 9.53289 50.8168 9.44911C51.1222 9.19324 51.6493 8.66946 52.3872 7.99666C56.5785 4.17528 67.617 -4.47757 83.5312 4.16542C84.9757 4.95 87.5714 8.14371 88.7748 9.32945C88.9956 9.54689 89.1727 9.69868 89.2894 9.76275C89.3705 9.8071 89.4368 9.81381 89.4808 9.80217C99.1494 7.21976 105.809 8.19043 110.321 10.5885C117.07 14.1763 119.002 20.9521 119.006 23.7239C119.007 24.3185 118.84 25.3374 118.932 25.9807C118.977 26.2961 119.091 26.5252 119.284 26.6105C128.43 30.6521 132.345 35.7018 133.458 40.6172C135.128 47.9875 130.507 55.0429 127.841 57.8951C126.228 59.622 124.538 60.3137 123.299 60.9091C122.441 61.3211 121.796 61.6944 121.514 62.3038C115.385 75.5269 99.9321 75.4522 94.2904 73.7931C91.1152 72.8595 90.3746 71.9744 90.3746 71.9744C90.356 71.9517 90.3278 71.9381 90.2977 71.9368C90.2674 71.9356 90.238 71.9468 90.2175 71.9679C80.6884 81.6427 68.6083 82.4271 60.2644 79.3362C56.6965 78.0145 53.8122 75.9848 52.1079 73.6384C51.5261 72.8374 50.7231 72.2703 50.7231 72.2703C50.6934 72.2494 50.6542 72.2451 50.6202 72.2589C50.6202 72.2589 45.2632 74.4504 38.9015 74.5824C32.5536 74.7141 25.2018 72.7929 21.1913 64.5723C20.9848 64.1495 20.657 63.1826 20.3845 62.6129C20.2975 62.4309 20.2145 62.2878 20.1432 62.2089C20.0984 62.1595 20.0534 62.1309 20.0149 62.1194C14.0508 60.3618 10.2681 57.8019 8.62474 52.7287Z" fill="black"/>
    <path fill-rule="evenodd" clip-rule="evenodd" d="M133.149 156.789C133.164 156.781 133.179 156.771 133.193 156.763L133.284 156.704C133.602 156.499 133.748 156.379 134.032 156.121C134.322 155.858 134.333 155.421 134.057 155.147C133.781 154.871 133.321 154.859 133.031 155.121L133.019 155.133C132.748 154.859 132.355 154.691 131.959 154.668C131.493 154.64 131.039 154.806 130.749 155.145C130.643 155.269 130.555 155.421 130.5 155.582C130.387 155.914 130.42 156.196 130.519 156.426C130.73 156.915 131.325 157.209 131.859 157.203C132.084 157.201 132.306 157.162 132.517 157.094C132.741 157.024 132.949 156.913 133.149 156.789ZM113.575 155.807C113.587 155.819 113.6 155.831 113.613 155.843C113.775 156 113.947 156.148 114.143 156.259C114.332 156.365 114.537 156.448 114.754 156.493C115.261 156.598 115.895 156.428 116.207 155.985C116.349 155.782 116.44 155.519 116.41 155.182C116.394 155.015 116.346 154.849 116.274 154.709C116.107 154.384 115.808 154.157 115.451 154.053C115.019 153.925 114.507 153.99 114.12 154.24C113.894 153.942 113.46 153.865 113.135 154.069C112.8 154.277 112.707 154.705 112.927 155.025C113.137 155.328 113.247 155.472 113.501 155.732C113.526 155.758 113.55 155.782 113.575 155.807Z" fill="black"/>
    <path fill-rule="evenodd" clip-rule="evenodd" d="M69.8777 91.1217C67.0374 92.8022 64.4948 98.1622 67.1191 101.811C68.4373 103.644 72.362 108.054 78.493 105.194C82.1191 103.503 86.6518 99.2139 82.5944 93.2373C79.725 89.0108 72.8142 89.3842 69.8777 91.1217ZM94.701 125.794C93.2706 126.874 93.4404 128.84 94.3774 129.898C95.2749 130.914 97.808 131.704 99.2772 130.127C102.153 127.044 97.7315 123.504 94.701 125.794ZM83.4981 112.86C82.161 113.821 81.2564 115.377 81.5407 117.22C82.2323 121.705 88.3971 122.867 91.3467 119.812C92.4626 118.656 93.7396 115.685 91.1871 113.266C88.3154 110.543 84.613 112.058 83.4981 112.86ZM39.4923 24.7354C39.1006 25.9703 39.1686 31.9547 39.6252 32.3736C40.0332 32.748 46.9328 33.1519 47.7752 32.5769C48.1795 32.3009 48.3803 25.0108 47.9314 24.725C47.5362 24.4736 39.6652 24.19 39.4923 24.7354ZM56.2323 31.2423C56.1046 30.0329 60.0497 26.1364 61.3136 26.7373C63.0733 27.5739 61.3522 31.1443 63.2236 32.0342C65.428 33.0821 67.9785 26.7814 70.7048 27.6455C71.7338 27.9715 70.8176 31.0284 71.9782 31.5802C73.3268 32.2213 76.1453 26.7647 77.2307 27.7967C77.9344 28.4657 77.1835 30.5738 78.345 31.126C78.9605 31.4187 81.9348 28.8283 82.8019 28.5535C84.8633 27.9 84.3435 30.2845 85.9852 29.764C87.4994 29.2842 88.7363 28.2869 90.2829 27.7967M39.5047 38.3664C39.1131 39.6012 39.1811 45.5857 39.6378 46.0046C40.0459 46.379 46.9453 46.7829 47.7879 46.2079C48.1922 45.9321 48.3929 38.6418 47.944 38.3562C47.5486 38.1046 39.6779 37.821 39.5047 38.3664ZM56.245 44.8733C56.1173 43.6641 60.0621 39.7674 61.3262 40.3685C63.0857 41.2049 61.3648 44.7753 63.2362 45.6652C65.4407 46.7131 67.9911 40.4124 70.7174 41.2765C71.7462 41.6025 70.8302 44.6594 71.9907 45.2112C73.3394 45.8522 76.158 40.3957 77.2434 41.4277C77.9469 42.0967 77.1961 44.205 78.3576 44.7572C78.9732 45.0497 81.9473 42.4592 82.8143 42.1844C84.8759 41.5311 84.3561 43.9154 85.9978 43.395C87.5118 42.9152 88.749 41.9179 90.2955 41.4277M39.4813 51.8243C39.0896 53.0591 39.1576 59.0434 39.6142 59.4625C40.0222 59.8369 46.9216 60.2408 47.7643 59.6658C48.1686 59.3898 48.3693 52.0995 47.9204 51.8139C47.5252 51.5623 39.6542 51.2787 39.4813 51.8243Z" fill="white"/>
    <path fill-rule="evenodd" clip-rule="evenodd" d="M105.464 194.715C102.734 197.169 100.443 199.389 98.0903 202.139C95.8602 204.743 93.5734 207.824 90.8032 212.031C88.2886 215.851 85.1825 220.843 82.1922 225.812C79.0987 230.955 76.129 236.077 74.0666 239.858L73.2338 241.397L73.6416 241.595L73.6173 241.642L73.2097 241.445C71.467 244.687 69.878 247.727 67.8448 251.015C66.7787 252.74 65.59 254.532 64.192 256.458C64.0134 256.084 63.9036 255.806 63.6077 255.632C63.4203 255.522 63.1549 255.443 62.7354 255.435C59.8217 255.382 51.8365 255.35 43.811 255.354C35.9867 255.358 28.1243 255.396 24.8844 255.474C24.4647 255.484 24.0795 255.729 23.8614 256.091C23.669 256.411 23.6101 256.815 23.76 257.191C24.3889 258.77 26.0343 262.341 27.7662 265.952C29.2926 269.134 30.886 272.351 31.9088 274.267C29.9082 275.96 28.9685 277.872 28.6403 279.682C28.1348 282.468 29.0956 285.012 29.9038 286.168C31.418 288.33 33.0093 290.518 34.7566 291.906C36.2042 293.057 37.762 293.67 39.4623 293.373L42.065 299.155C42.221 299.519 42.3802 299.716 42.5755 299.835C42.7698 299.955 43.0194 300.01 43.4194 300.01L84.327 300.095C84.6566 300.093 84.9071 299.953 85.0481 299.732C85.1787 299.529 85.2343 299.212 85.0317 298.8L77.2466 282.984C79.4697 280.538 81.9836 277.632 84.2863 274.701C85.8916 272.658 87.3941 270.602 88.6247 268.682C89.9264 266.65 91.0667 264.759 92.127 262.859C93.2143 260.911 94.2174 258.956 95.2245 256.829L96.4405 254.436L96.5802 254.55L97.1552 253.915C97.2576 256.255 97.354 258.589 97.4405 260.929C97.5804 264.704 97.6951 268.493 97.7642 272.339C97.799 274.279 97.8044 275.992 97.794 277.604C97.7679 281.661 97.6429 285.093 97.6373 289.913L98.5773 289.915C98.5802 285.097 98.7034 281.665 98.7274 277.61C98.737 275.99 98.7308 274.271 98.6947 272.325C98.6236 268.471 98.5068 264.678 98.3648 260.898C98.1515 255.214 97.8809 249.561 97.6227 243.773L96.7071 243.81C96.838 246.771 96.9719 249.699 97.0994 252.61L96.1672 253.663C91.9655 250.674 88.8926 248.719 85.5675 246.909C82.4191 245.196 79.0442 243.611 74.2634 241.399L74.8805 240.26C76.9393 236.487 79.9038 231.377 82.9921 226.248C85.9772 221.288 89.0779 216.309 91.5882 212.498C94.3346 208.331 96.6008 205.277 98.8114 202.697C101.539 199.511 104.183 197.045 107.537 194.084C109.845 192.046 112.706 189.676 115.654 187.346C118.45 185.134 121.324 182.958 123.881 181.135C128.283 183.161 131.349 184.283 134.26 184.332C136.542 184.371 138.736 183.76 141.392 182.388C141.551 182.414 141.886 182.469 142 182.522C146.976 184.829 151.102 187.074 154.841 189.58C158.817 192.243 162.354 195.198 166.012 198.825C171.185 203.954 176.557 211.016 181.243 218.684C185.669 225.927 189.48 233.713 191.929 240.926C186.627 241.955 182.611 242.913 178.919 244.228C175 245.622 171.442 247.418 167.104 250.134C166.819 248.926 166.552 247.605 166.309 246.14L165.38 246.28C165.936 249.608 166.612 252.214 167.344 254.412C169.578 261.118 172.35 263.979 173.785 272.116C166.75 272.733 161.227 273.149 156.591 273.455C146.992 274.089 141.191 274.251 133.646 274.724L127.774 274.91L137.227 261.998C137.23 261.994 137.232 261.99 137.235 261.986L137.38 261.607C137.408 261.444 137.408 261.071 137.133 260.596C136.966 260.308 136.689 259.967 136.23 259.614C135.61 259.139 135.093 258.983 134.689 258.962C134.088 258.928 133.694 259.184 133.499 259.324C133.394 259.401 133.288 259.525 133.288 259.525L133.647 260.247L133.265 259.555L121.899 275.213L121.991 275.274C119.545 275.588 117.327 276.173 115.528 277.311C114.203 278.148 113.102 279.282 112.301 280.825C111.567 282.239 111.35 283.639 111.549 284.989C111.734 286.235 112.275 287.443 113.102 288.583L111.833 290.343L111.823 290.337L108.084 295.484L108.07 295.506L108.069 295.504C108.069 295.504 107.98 295.638 107.94 295.752C107.847 296.012 107.688 296.549 107.587 297.158C107.509 297.631 107.467 298.147 107.512 298.618L107.513 298.664C107.539 298.902 107.758 299.076 108.008 299.06L108.049 299.056C108.602 299.015 109.145 298.881 109.617 298.723C110.32 298.486 110.864 298.199 111.042 298.106L111.374 297.828L116.137 291.616C117.709 292.809 119.59 293.854 121.63 294.696C124.792 295.999 128.333 296.815 131.681 296.937C142.228 297.325 150.696 297.586 159.331 297.384C165.163 297.248 171.07 296.901 177.745 296.243C184.985 295.527 190.536 293.513 194.413 289.588C197.961 286 200.117 280.802 200.855 273.486C201.168 270.38 200.252 265.404 198.879 260.109C197.032 252.983 194.369 245.267 192.86 240.794L192.87 240.79C190.403 233.483 186.54 225.584 182.049 218.238C177.322 210.505 171.898 203.387 166.68 198.216C165.019 196.57 163.383 195.062 161.72 193.656C163.654 188.101 164.169 182.037 163.905 176.194C163.389 164.771 159.897 154.199 158.295 149.986C157.596 148.149 155.507 141.693 150.819 135.724C147.694 131.747 143.418 127.988 137.642 125.93C133.407 124.421 129.338 124.221 125.681 124.864C121.381 125.621 117.649 127.543 114.884 129.881C111.571 132.68 109.123 136.542 107.337 140.644C104.303 147.616 103.183 155.283 102.922 159.515C102.706 163.036 102.066 171.944 102.795 180.92C103.19 185.777 103.987 190.654 105.464 194.715ZM84.2001 299.208L84.1876 299.176L63.4352 256.998C63.3114 256.752 63.284 256.541 63.1513 256.403C63.0763 256.326 62.9475 256.318 62.7174 256.314C59.8068 256.259 51.8292 256.229 43.8115 256.231C35.9967 256.235 28.1437 256.269 24.908 256.348C24.8002 256.352 24.7152 256.433 24.6592 256.525C24.5968 256.63 24.5709 256.76 24.6194 256.882C25.2445 258.453 26.8802 261.999 28.6011 265.589C30.1153 268.749 31.6957 271.941 32.7139 273.851C32.9884 273.843 33.316 273.926 33.6766 274.111C34.6291 274.606 35.9761 275.799 37.0628 276.451C39.2394 277.754 41.5193 279.925 43.0961 282.168C44.3574 283.964 45.1616 285.811 45.1556 287.307C45.1502 288.65 44.5137 290.006 43.4936 291.104C42.6589 292.003 41.5691 292.728 40.3771 293.134L42.935 298.82C42.9916 298.952 43.0151 299.042 43.086 299.086C43.1619 299.133 43.2655 299.117 43.4221 299.117L84.2001 299.208ZM113.688 289.341L112.587 290.84L112.596 290.846L108.851 295.987C108.836 296.008 108.819 296.028 108.8 296.046L108.823 296.036C108.74 296.269 108.597 296.75 108.506 297.296C108.462 297.562 108.43 297.844 108.424 298.118C108.736 298.065 109.036 297.982 109.31 297.891C109.943 297.68 110.434 297.42 110.595 297.335L110.615 297.325L110.62 297.317L115.433 291.055C114.782 290.509 114.196 289.937 113.688 289.341ZM192.23 241.778C186.93 242.801 182.924 243.747 179.242 245.054C175.298 246.454 171.726 248.269 167.325 251.039C167.614 252.169 167.918 253.194 168.233 254.144C170.482 260.915 173.267 263.797 174.701 272.035C176.221 271.903 177.813 271.759 179.48 271.606L179.57 272.497C169.708 273.4 162.482 273.955 156.655 274.338C147.055 274.969 141.253 275.128 133.707 275.598L127.68 275.785L123.085 275.982V275.994L122.531 276.108C120.499 276.339 118.619 276.743 117.016 277.514C115.384 278.296 114.043 279.463 113.131 281.216C112.485 282.456 112.288 283.682 112.462 284.869C112.638 286.075 113.196 287.236 114.038 288.33L113.668 288.588L113.687 288.6L114.06 288.34C115.785 290.577 118.678 292.505 122.003 293.877C125.059 295.137 128.482 295.928 131.717 296.048C142.242 296.436 150.692 296.698 159.309 296.499C165.116 296.365 171.001 296.02 177.648 295.364C184.631 294.676 189.999 292.77 193.739 288.987C197.171 285.517 199.223 280.478 199.936 273.403C200.243 270.364 199.327 265.499 197.985 260.318C196.24 253.58 193.764 246.314 192.23 241.778ZM32.7811 274.716C32.8167 274.687 32.8596 274.744 32.9221 274.764C33.129 274.831 33.3691 274.965 33.6326 275.134C34.5285 275.706 35.6396 276.652 36.5629 277.204C38.2973 278.243 40.098 279.86 41.5218 281.61C43.1009 283.552 44.4861 285.71 44.4803 287.364C44.4761 288.503 43.6622 289.588 42.797 290.52C41.9626 291.419 40.8397 292.123 39.6224 292.434C38.0636 292.835 36.6602 292.273 35.35 291.232C33.6618 289.891 32.1348 287.77 30.6714 285.681C29.942 284.64 29.0913 282.343 29.5462 279.83C29.857 278.113 30.7836 276.297 32.7734 274.707L32.7811 274.716ZM73.8674 242.184C72.1811 245.318 70.6196 248.273 68.6425 251.463C67.4864 253.326 66.1886 255.269 64.6409 257.373L76.8207 282.119C78.9617 279.749 81.3508 276.974 83.5461 274.176C85.1319 272.156 86.6162 270.121 87.8314 268.223C89.1217 266.206 90.2519 264.328 91.3027 262.443C92.379 260.511 93.3721 258.571 94.369 256.464L95.4743 254.286C91.3792 251.372 88.3653 249.452 85.1062 247.674C81.9758 245.967 78.6196 244.388 73.8674 242.184ZM126.593 274.959L136.456 261.503L136.462 261.465C136.478 261.375 136.43 261.168 136.236 260.894C136.107 260.712 135.918 260.511 135.646 260.302C135.316 260.048 135.036 259.914 134.797 259.865C134.413 259.782 134.171 259.947 134.06 260.026L133.647 260.247L134.028 260.056L123.087 275.111L126.593 274.959ZM96.2228 254.278L96.2678 254.296L96.2315 254.266L96.2228 254.278ZM160.951 193.016C162.748 187.66 163.221 181.842 162.968 176.232C162.459 164.924 159.002 154.457 157.417 150.288C156.73 148.48 154.684 142.126 150.073 136.254C147.046 132.4 142.911 128.751 137.316 126.756C133.256 125.309 129.356 125.116 125.849 125.731C121.727 126.454 118.15 128.298 115.499 130.539C112.286 133.252 109.922 137.003 108.191 140.979C105.201 147.847 104.099 155.397 103.842 159.566C103.626 163.068 102.986 171.927 103.711 180.853C104.087 185.485 104.83 190.137 106.198 194.058C106.429 193.851 106.664 193.642 106.902 193.434C109.22 191.385 112.093 189.004 115.055 186.66C117.839 184.458 120.7 182.29 123.25 180.466C123.193 180.273 123.159 180.044 123.151 179.794C123.126 179.041 123.287 178.087 123.345 177.775L123.344 171.17C123.006 171.067 122.442 170.878 121.731 170.576C121.615 170.531 121.502 170.484 121.389 170.436C120.73 170.158 120.108 169.841 119.453 169.435C118.626 168.954 117.739 168.36 116.849 167.635C115.798 166.778 114.742 165.733 113.781 164.473L113.762 164.447L113.718 164.39L113.701 164.367L113.678 164.335C113.348 163.901 113.062 163.481 112.807 163.066L112.742 162.957C112.506 162.573 112.279 162.173 112.064 161.757C111.722 161.09 111.443 160.406 111.217 159.73C110.964 159.07 110.787 158.394 110.65 157.725C110.425 156.623 110.312 155.539 110.14 154.573L110.088 154.27C109.485 153.382 109.165 152.519 109.01 151.691C108.967 151.464 108.937 151.238 108.918 151.017L108.916 150.997L108.915 150.987L108.914 150.977L108.91 150.924L108.905 150.851L108.904 150.834C108.861 150.179 108.902 149.552 108.962 148.957L108.966 148.921C108.978 148.779 109.006 148.655 109.046 148.539C109.065 148.474 109.088 148.415 109.113 148.358C109.275 147.991 109.558 147.851 109.723 147.419C109.864 147.047 109.941 146.603 109.993 146.128C110.023 145.86 110.045 145.582 110.063 145.3C110.082 144.882 110.098 144.452 110.154 143.991C110.184 143.753 110.409 143.579 110.661 143.603C110.697 143.607 110.731 143.615 110.764 143.625C113.792 143.938 115.613 144.575 123.079 145.779C126.126 146.272 130.118 146.857 135.522 147.557C136.958 147.743 139.685 148.013 142.088 148.19C144.052 148.336 145.794 148.425 146.4 148.346C146.912 148.279 147.474 148.121 148.081 148.097C148.484 148.08 148.904 148.119 149.342 148.263C150.357 148.598 150.973 149.684 151.163 151.001C151.398 152.622 151.007 154.553 150.241 155.51L150.137 155.784C149.116 158.352 147.803 160.497 146.499 162.222C144.252 165.195 142.03 166.917 141.374 167.397C141.371 168.353 141.365 172.283 141.44 175.956C141.485 178.144 141.558 180.242 141.679 181.55C141.931 181.596 142.248 181.669 142.401 181.74C147.427 184.066 151.594 186.335 155.372 188.864C157.313 190.165 159.152 191.533 160.951 193.016ZM111.042 144.553C111.02 144.878 111.001 145.207 110.977 145.531C110.96 145.89 110.938 146.24 110.884 146.593C110.837 146.903 110.767 147.214 110.659 147.536C110.64 147.599 110.619 147.66 110.596 147.719C110.555 147.829 110.507 147.922 110.455 148.005L110.454 148.007L110.423 148.054L110.393 148.101L110.392 148.103C110.246 148.32 110.079 148.5 109.965 148.724L109.939 148.783C109.915 148.856 109.897 148.941 109.887 149.042L109.884 149.077C109.862 149.464 109.816 149.876 109.815 150.341C109.818 150.729 109.849 151.127 109.926 151.537L109.931 151.563C109.996 151.886 110.094 152.235 110.239 152.614L110.252 152.645L110.292 152.74L110.861 153.777L110.873 153.794C110.906 153.844 110.937 153.962 110.97 154.138L111.051 154.425C111.191 155.208 111.291 156.067 111.445 156.951C111.544 157.445 111.666 157.974 111.817 158.52C111.918 158.886 112.033 159.263 112.166 159.639C112.477 160.424 112.788 161.147 113.17 161.865C114.378 164.033 115.902 165.683 117.422 166.929L117.606 167.075C118.146 167.495 118.772 167.937 119.541 168.437C120.798 169.208 121.935 169.711 122.736 170.014C123.067 170.133 123.414 170.247 123.784 170.367C123.879 170.393 123.93 170.407 123.93 170.407C123.993 170.42 124.051 170.448 124.1 170.486C124.242 170.572 124.267 170.685 124.275 170.765C124.28 170.789 124.282 170.813 124.282 170.836C124.282 170.836 124.285 178.767 124.276 180.348C128.522 182.298 131.47 183.404 134.276 183.449C136.363 183.482 138.365 182.919 140.772 181.69C140.646 180.368 140.569 178.219 140.522 175.974C140.435 171.745 140.454 167.174 140.454 167.174C140.455 167.032 140.527 166.9 140.649 166.817C140.649 166.817 143.179 165.112 145.75 161.711C147.012 160.04 148.284 157.96 149.271 155.474L149.486 155.001C150.048 154.325 150.341 153.026 150.303 151.802C150.267 150.581 149.943 149.395 149.038 149.097C148.72 148.992 148.414 148.967 148.121 148.979C147.544 149.002 147.012 149.158 146.526 149.221C145.892 149.304 144.07 149.223 142.016 149.071C139.594 148.894 136.844 148.622 135.397 148.435C129.979 147.737 125.977 147.149 122.922 146.656C115.77 145.505 113.822 144.874 111.042 144.553ZM141.492 181.795L141.345 181.809L141.278 181.939L141.393 182.14C141.43 182.031 141.47 181.903 141.492 181.795ZM111.076 143.993C111.08 144.021 111.08 144.048 111.078 144.078L111.073 144.139C111.077 144.121 111.079 144.102 111.081 144.082C111.082 144.05 111.081 144.021 111.076 143.993ZM20.5691 25.8913C20.3395 25.9918 20.0246 26.125 19.8792 26.1684C15.961 27.3398 10.1225 31.8284 7.54823 38.2691C5.66643 42.9774 5.51528 48.7235 9.12856 54.9625C10.2836 56.9569 12.0014 58.4797 13.7259 59.6098C15.8886 61.0272 18.0563 61.8244 19.0945 62.1702L19.4395 62.2825C19.5394 62.9597 19.7306 63.597 19.9781 64.1896C20.2817 64.9166 20.6702 65.576 21.0775 66.1587C24.2124 70.6442 27.9799 73.0467 31.6766 74.2474C37.0952 76.0074 42.3686 75.1747 45.2925 74.4995C46.7295 74.1678 49.1796 73.1411 50.275 72.7202C50.3441 72.6936 50.4172 72.6755 50.4832 72.6607C51.2184 73.5902 52.4879 75.0335 54.1172 76.4113C55.4952 77.5765 57.1296 78.6931 58.9146 79.4203C60.0255 79.8729 65.6775 82.2562 73.0795 81.2915C77.0936 80.7683 81.6239 79.262 86.2223 75.924C87.2625 75.1688 89.0394 73.4719 89.8476 72.7551C89.9 72.7086 89.9593 72.669 90.0126 72.6349C91.7323 73.4624 93.8283 74.2247 96.1108 74.7049C98.2609 75.1571 100.576 75.359 102.9 75.1329C105.484 74.8814 108.695 74.0142 111.733 72.6031C114.556 71.291 117.227 69.5086 119.112 67.3242C120.097 66.1832 120.695 65.1581 121.064 64.3227C121.486 63.3652 121.611 62.6506 121.662 62.2829C123.497 61.6095 125.39 60.4644 127.071 59.1085C128.871 57.6563 130.427 55.9633 131.415 54.3589C133.66 50.71 134.416 46.6456 133.978 42.7767C133.517 38.7065 131.733 34.854 128.977 31.9309C127.105 29.947 125.202 28.6391 123.587 27.7713C121.834 26.83 120.419 26.4064 119.746 26.2025L119.725 26.1956C119.871 25.3834 119.819 24.286 119.652 23.1482C119.37 21.2303 118.776 19.1941 118.38 18.2867C116.378 13.6897 112.75 10.9689 108.863 9.43795C103.854 7.46506 98.4173 7.48044 95.5353 7.9776C93.7329 8.28848 91.2146 9.08213 90.0732 9.4271C89.9834 9.45411 89.8886 9.46988 89.8057 9.48289C89.21 8.63207 88.5059 7.82345 87.8242 7.12087C86.7255 5.98856 85.6857 5.13183 85.2594 4.81524C82.0902 2.46209 77.1238 0.341555 71.5104 0.0373829C67.0186 -0.205876 62.1132 0.710581 57.384 3.59638C56.7203 4.00128 55.6129 4.8793 54.472 5.83716C52.8796 7.17351 51.2176 8.6648 50.6254 9.19942C49.9804 8.95813 48.264 8.37857 45.7859 8.00796C44.2896 7.78422 42.5137 7.63657 40.528 7.68664C33.7238 7.85853 29.231 9.99267 26.2636 12.7464C21.1658 17.4767 20.5732 24.0704 20.5691 25.8913ZM50.5244 10.1159C50.699 10.1884 50.9037 10.1555 51.0417 10.0329C51.0337 10.0329 53.1097 8.1428 55.0786 6.49045C56.1771 5.56847 57.2403 4.71983 57.8791 4.3301C62.4254 1.55647 67.1405 0.674506 71.4581 0.908697C76.8614 1.20183 81.6434 3.23858 84.6938 5.50361C85.102 5.8068 86.0964 6.62884 87.1486 7.71325C87.871 8.45781 88.621 9.32617 89.2247 10.2367C89.2515 10.2769 89.4221 10.5021 89.7793 10.4226C89.8758 10.4011 90.0756 10.3434 90.3514 10.26C91.4694 9.9223 93.9344 9.14225 95.6995 8.83788C98.4699 8.36003 103.696 8.34959 108.511 10.2466C112.191 11.6967 115.633 14.2682 117.529 18.6221C117.907 19.4892 118.47 21.4365 118.739 23.2696C118.914 24.4587 118.973 25.5983 118.748 26.3395C118.713 26.4539 118.68 26.7245 119.025 26.8877C119.106 26.9264 119.294 26.9855 119.574 27.0705C120.383 27.3161 122.072 27.8484 124.083 29.0806C125.4 29.8879 126.854 30.9948 128.29 32.5166C130.921 35.307 132.62 38.9857 133.06 42.8705C133.477 46.5598 132.758 50.4358 130.617 53.9151C129.676 55.4441 128.188 57.054 126.472 58.4379C124.8 59.7867 122.91 60.9214 121.091 61.548C121.053 61.561 120.807 61.7343 120.743 62.1818C120.687 62.5761 120.535 63.3896 119.974 64.4762C119.626 65.1486 119.124 65.9228 118.397 66.7659C116.592 68.857 114.029 70.5559 111.326 71.8118C108.396 73.173 105.298 74.0138 102.806 74.2563C100.583 74.4723 98.3681 74.2768 96.3113 73.8441C93.9898 73.3554 91.8685 72.5645 90.1621 71.7164C90.097 71.6839 89.8897 71.5987 89.6363 71.7641C89.5604 71.8136 89.4122 71.9348 89.2148 72.1099C88.4213 72.8133 86.6801 74.4814 85.6589 75.2224C81.2126 78.4496 76.8346 79.9106 72.9534 80.4162C65.8086 81.347 60.3533 79.0444 59.281 78.6073C57.5889 77.9178 56.0421 76.855 54.7357 75.7503C53.0032 74.285 51.6922 72.7433 51.027 71.8733C50.9816 71.814 50.8124 71.6293 50.4815 71.7074C50.3868 71.7298 50.1919 71.7972 49.9261 71.8996C48.8587 72.3096 46.4731 73.3157 45.0727 73.639C42.2608 74.2882 37.1889 75.1016 31.978 73.4086C28.4446 72.2607 24.8508 69.9553 21.8548 65.6677C21.4811 65.1333 21.1241 64.5291 20.8456 63.8622C20.5946 63.2609 20.4075 62.6082 20.3319 61.91C20.3296 61.8879 20.2929 61.6216 19.947 61.5082C19.8372 61.4721 19.606 61.4014 19.2821 61.2916C18.0679 60.8802 15.5314 59.9128 13.2324 58.1544C11.9807 57.1972 10.7985 56.0041 9.94713 54.5339C6.49536 48.5727 6.62474 43.0836 8.42299 38.5851C10.8791 32.4413 16.4223 28.1354 20.1604 27.0182C20.3729 26.9548 20.9095 26.7247 21.139 26.6238C21.4865 26.4708 21.5112 26.153 21.5112 26.153C21.4523 25.0002 21.7465 18.1834 26.9188 13.3847C29.7533 10.755 34.0543 8.74306 40.5529 8.57945C42.4741 8.53115 44.1923 8.67387 45.6398 8.89051C48.6843 9.34588 50.5244 10.1261 50.5244 10.1261V10.1159ZM20.6603 25.852L20.7453 25.8152C20.7876 25.7966 20.8401 25.7903 20.8332 25.7763C20.7664 25.6421 20.7057 25.7253 20.6603 25.852Z" fill="#1A1A1A"/>
    <path fill-rule="evenodd" clip-rule="evenodd" d="M52.8583 281.718C52.6988 281.754 47.296 279.093 48.8759 276.895C49.9431 275.41 51.7345 276.999 51.7473 276.989C51.7473 276.989 52.7233 274.789 54.5746 275.919C56.8501 277.305 53.2099 281.636 52.8583 281.718ZM28.5535 259.569C28.7316 258.774 29.845 258.621 30.3963 259.106C30.9057 259.551 30.8926 260.564 29.8862 260.825C29.3374 260.969 28.3532 260.462 28.5535 259.569Z" fill="black"/>
    <path d="M56.5436 30.6104C56.5862 29.9752 57.5666 29.0775 57.8505 28.721C58.7813 27.5518 59.7835 26.7227 60.8076 25.8227C61.4222 25.2825 62.6062 24.0261 63.366 24.5294C64.1074 25.0206 64.1762 27.7548 64.2963 28.8494C64.4373 30.1336 64.87 30.2802 65.6254 30.2802C66.9936 30.2802 67.8868 27.8796 68.9092 26.6481L68.9168 26.639C69.8077 25.5659 70.4168 24.8321 71.5174 24.8321C72.4201 24.8321 72.7818 26.7173 72.9849 27.9505C73.105 28.6797 73.1322 29.8018 73.6107 30.1151C74.5339 30.7196 75.2589 29.6465 75.9476 28.7576C76.4909 28.0565 77.1341 26.6481 77.8747 26.6481C78.4988 26.6481 78.7382 28.3518 78.8493 29.1795C79.0345 30.5595 79.7917 30.143 80.3832 29.5831C81.3921 28.6283 82.4605 26.3179 83.7058 26.3179C84.5392 26.3179 84.356 27.0605 84.7525 28.0973C86.5435 32.7811 89.9336 27.1267 91.9293 25.6576M56.5436 43.8907C56.5862 43.2555 57.5666 42.3578 57.8505 42.0013C58.7813 40.8322 59.7835 40.0031 60.8076 39.103C61.4222 38.5629 62.6062 37.3065 63.366 37.8098C64.1074 38.301 64.1762 41.0352 64.2963 42.1297C64.4373 43.4139 64.87 43.5605 65.6254 43.5605C66.9936 43.5605 67.8868 41.16 68.9092 39.9285L68.9168 39.9194C69.8077 38.8462 70.4168 38.1125 71.5174 38.1125C72.4201 38.1125 72.7818 39.9977 72.9849 41.2309C73.105 41.9601 73.1322 43.0821 73.6107 43.3954C74.5339 44 75.2589 42.9268 75.9476 42.038C76.4909 41.3368 77.1341 39.9285 77.8747 39.9285C78.4988 39.9285 78.7382 41.6321 78.8493 42.4599C79.0345 43.8399 79.7917 43.4233 80.3832 42.8635C81.3921 41.9087 82.4605 39.5983 83.7058 39.5983C84.5392 39.5983 84.356 40.3409 84.7525 41.3777C86.5435 46.0614 89.9336 40.407 91.9293 38.938" stroke="black" stroke-linecap="round"/>
    <path d="M100.276 128C100.276 129.622 98.7608 131.041 96.7546 131.041C94.7483 131.041 93.2335 129.622 93.2335 128C93.2335 126.378 94.7483 124.958 96.7546 124.958C98.7608 124.958 100.276 126.378 100.276 128ZM93.0377 116.49C93.0377 119.063 90.4749 121.302 87.1039 121.302C83.7329 121.302 81.1702 119.063 81.1702 116.49C81.1702 113.918 83.7329 111.678 87.1039 111.678C90.4749 111.678 93.0377 113.918 93.0377 116.49ZM84.1913 97.8977C84.1913 102.472 80.1358 106.251 75.0406 106.251C69.9454 106.251 65.89 102.472 65.89 97.8977C65.89 93.3238 69.9454 89.5441 75.0406 89.5441C80.1358 89.5441 84.1913 93.3238 84.1913 97.8977ZM40.7684 22.9986C40.7675 22.9994 40.7675 22.9994 40.7687 22.9985C40.7737 22.9948 40.7983 22.9765 40.8564 22.9476C40.9233 22.9143 41.0151 22.8766 41.1333 22.8363C41.3696 22.7558 41.6823 22.6747 42.0525 22.5995C42.7916 22.4495 43.723 22.3305 44.6545 22.2813C45.5898 22.2319 46.5002 22.2543 47.2055 22.3756C47.5591 22.4365 47.8383 22.5185 48.0371 22.6148C48.2407 22.7134 48.3077 22.8011 48.3272 22.8443C48.4678 23.1561 48.5921 23.7188 48.6783 24.4591C48.7627 25.1846 48.8056 26.034 48.8056 26.8882C48.8056 27.7424 48.7627 28.5918 48.6783 29.3173C48.5921 30.0577 48.4678 30.6203 48.3272 30.9322C48.3 30.9923 48.2159 31.098 48.0042 31.2229C47.7991 31.3438 47.5166 31.4577 47.1666 31.5557C46.468 31.7514 45.5693 31.8651 44.6535 31.8796C43.7371 31.894 42.8347 31.8085 42.1273 31.6239C41.7733 31.5315 41.4857 31.4187 41.2738 31.2933C41.0591 31.1662 40.9555 31.0463 40.9125 30.9538C40.5462 30.1655 40.3519 29.1508 40.2533 28.0902C40.1553 27.0353 40.1549 25.9762 40.1549 25.1085C40.1549 24.671 40.155 24.3604 40.1663 24.12C40.1776 23.8794 40.1991 23.744 40.2282 23.6502C40.2787 23.4874 40.3607 23.392 40.7684 22.9986ZM40.7684 37.1643C40.7675 37.1652 40.7675 37.1651 40.7687 37.1643C40.7737 37.1606 40.7983 37.1422 40.8564 37.1134C40.9233 37.0801 41.0151 37.0424 41.1333 37.0021C41.3696 36.9215 41.6823 36.8404 42.0525 36.7653C42.7916 36.6152 43.723 36.4962 44.6545 36.4471C45.5898 36.3977 46.5002 36.42 47.2055 36.5414C47.5591 36.6022 47.8383 36.6842 48.0371 36.7805C48.2407 36.8792 48.3077 36.9668 48.3272 37.01C48.4678 37.3219 48.5921 37.8845 48.6783 38.6248C48.7627 39.3503 48.8056 40.1998 48.8056 41.0539C48.8056 41.9081 48.7627 42.7576 48.6783 43.4831C48.5921 44.2234 48.4678 44.7861 48.3272 45.0979C48.3 45.1581 48.2159 45.2637 48.0042 45.3886C47.7991 45.5096 47.5166 45.6234 47.1666 45.7214C46.468 45.9171 45.5693 46.0309 44.6535 46.0453C43.7371 46.0597 42.8347 45.9743 42.1273 45.7896C41.7733 45.6972 41.4857 45.5845 41.2738 45.459C41.0591 45.332 40.9555 45.212 40.9125 45.1196C40.5462 44.3313 40.3519 43.3166 40.2533 42.256C40.1553 41.201 40.1549 40.142 40.1549 39.2742C40.1549 38.8368 40.155 38.5262 40.1663 38.2858C40.1776 38.0452 40.1991 37.9097 40.2282 37.816C40.2787 37.6532 40.3607 37.5577 40.7684 37.1643ZM40.7684 51.33C40.7675 51.3309 40.7675 51.3309 40.7687 51.33C40.7737 51.3263 40.7983 51.308 40.8564 51.2791C40.9233 51.2458 41.0151 51.2081 41.1333 51.1678C41.3696 51.0873 41.6823 51.0062 42.0525 50.931C42.7916 50.781 43.723 50.662 44.6545 50.6128C45.5898 50.5634 46.5002 50.5858 47.2055 50.7071C47.5591 50.768 47.8383 50.85 48.0371 50.9462C48.2407 51.0449 48.3077 51.1326 48.3272 51.1758C48.4678 51.4876 48.5921 52.0502 48.6783 52.7906C48.7627 53.516 48.8056 54.3655 48.8056 55.2197C48.8056 56.0738 48.7627 56.9233 48.6783 57.6488C48.5921 58.3891 48.4678 58.9518 48.3272 59.2637C48.3 59.3238 48.2159 59.4295 48.0042 59.5543C47.7991 59.6753 47.5166 59.7892 47.1666 59.8872C46.468 60.0829 45.5693 60.1966 44.6535 60.211C43.7371 60.2255 42.8347 60.14 42.1273 59.9553C41.7733 59.863 41.4857 59.7502 41.2738 59.6248C41.0591 59.4977 40.9555 59.3778 40.9125 59.2853C40.5462 58.497 40.3519 57.4823 40.2533 56.4217C40.1553 55.3668 40.1549 54.3077 40.1549 53.4399C40.1549 53.0025 40.155 52.6919 40.1663 52.4515C40.1776 52.2109 40.1991 52.0754 40.2282 51.9817C40.2787 51.8189 40.3607 51.7235 40.7684 51.33Z" fill="white" stroke="black"/>
    <path fill-rule="evenodd" clip-rule="evenodd" d="M44.5901 28.291C43.8184 26.9912 43.5067 25.5779 42.6529 24.3938C42.4024 24.0462 41.9208 23.9705 41.5783 24.2248C41.2358 24.4792 41.161 24.9679 41.4118 25.3155C42.3431 26.6074 42.6226 28.1753 43.5726 29.5663C43.6158 29.6584 43.7994 30.0423 43.9094 30.1972C44.0592 30.4076 44.236 30.5113 44.3528 30.5539C44.6677 30.6689 44.9449 30.6068 45.1821 30.3736C45.3343 30.2241 45.5613 29.8666 45.8093 29.3366C46.2588 28.3758 46.8904 26.7423 47.6036 25.0525C48.1971 23.6464 48.8474 22.1994 49.4974 21.0903C49.8817 20.4345 50.2524 19.9013 50.6188 19.6102C50.9533 19.3448 51.0124 18.8539 50.7509 18.5147C50.4893 18.1753 50.0057 18.1153 49.6712 18.3807C48.5523 19.2691 47.2607 21.9006 46.1899 24.4379C45.5719 25.9021 45.0168 27.3239 44.5901 28.291Z" fill="#DC4C3E"/>
</svg>
