<svg width="20" height="20" viewBox="0 0 20 20" fill="none" xmlns="http://www.w3.org/2000/svg">
    <path d="M3.15627 18.8761L4.30627 14.8511C4.35418 14.6115 4.49793 14.4198 4.6896 14.2281L15.2313 3.73439C16.3334 2.6323 18.1063 2.72814 19.1125 3.92606C19.975 4.98022 19.8313 6.56147 18.8729 7.51981L8.37918 17.9177C8.18752 18.1094 7.99585 18.2052 7.75627 18.3011L3.73127 19.4511C3.39585 19.5469 3.06043 19.2115 3.15627 18.8761Z"
          fill="#C0D6D1"/>
    <path d="M6.70203 8.33462L13.2666 1.77003C14.3687 0.66795 16.1416 0.763783 17.1479 1.9617C18.0104 3.01587 17.8666 4.59712 16.9083 5.55545L15.5666 6.89712M13.4583 9.05322L6.4625 16.0011C6.27083 16.1928 6.07917 16.2886 5.83958 16.3845L1 17.7741L2.38958 12.9345C2.4375 12.6949 2.58125 12.5032 2.77292 12.3116L4.54583 10.5386M11.8291 3.20752L15.5666 6.94502"
          stroke="#202020" stroke-width="0.5"/>
</svg>
